<?xml version="1.0" encoding="UTF-8"?>
<!DOCTYPE svg PUBLIC "-//W3C//DTD SVG 1.1//EN" "http://www.w3.org/Graphics/SVG/1.1/DTD/svg11.dtd">
<!-- Creator: CorelDRAW X7 -->
<svg xmlns="http://www.w3.org/2000/svg" xml:space="preserve" width="372px" height="372px" version="1.1" style="shape-rendering:geometricPrecision; text-rendering:geometricPrecision; image-rendering:optimizeQuality; fill-rule:evenodd; clip-rule:evenodd"
viewBox="0 0 17139 17139"
 xmlns:xlink="http://www.w3.org/1999/xlink">
 <defs>
  <style type="text/css">
   <![CDATA[
    .str0 {stroke:#EBECEC;stroke-width:54.3702}
    .fil3 {fill:none}
    .fil1 {fill:#2B2A29;fill-rule:nonzero}
    .fil2 {fill:#898989;fill-rule:nonzero}
    .fil0 {fill:#B2B3B3;fill-rule:nonzero}
   ]]>
  </style>
 </defs>
 <g id="Слой_x0020_1">
  <metadata id="CorelCorpID_0Corel-Layer"/>
  <g id="_2419673144160">
   <g id="_2219949680144">
    <path class="fil0" d="M3657 11517l243 0 0 353 36 0 0 140 -47 0 0 -92 -265 0 0 92 -47 0 0 -140 31 0c33,-49 49,-146 49,-294l0 -59 0 0zm190 48l-139 0 0 19c0,34 -4,81 -10,141 -6,58 -18,107 -35,145l184 0 0 -305 0 0zm384 157c0,-66 18,-118 54,-155 35,-38 81,-56 137,-56 37,0 70,9 99,26 31,18 53,42 69,74 16,31 23,67 23,106 0,42 -9,77 -24,109 -16,33 -40,56 -70,73 -31,16 -62,25 -98,25 -36,0 -71,-9 -100,-27 -29,-18 -52,-43 -67,-75 -16,-31 -23,-64 -23,-100l0 0zm55 2c0,47 12,85 38,113 26,28 58,42 97,42 41,0 74,-14 99,-42 26,-28 38,-68 38,-120 0,-31 -5,-61 -16,-84 -11,-24 -27,-44 -49,-56 -20,-13 -44,-21 -71,-21 -37,0 -69,14 -96,39 -27,26 -40,69 -40,129l0 0zm642 194l0 -401 79 0 96 283c8,26 14,47 18,59 5,-13 12,-35 22,-63l96 -279 70 0 0 401 -50 0 0 -335 -117 335 -48 0 -115 -341 0 341 -51 0 0 0zm1120 0l0 -401 54 0 0 165 206 0 0 -165 53 0 0 401 -53 0 0 -190 -206 0 0 190 -54 0zm651 0l0 -401 288 0 0 48 -236 0 0 122 221 0 0 48 -221 0 0 135 246 0 0 48 -298 0 0 0zm655 -401l243 0 0 353 37 0 0 140 -48 0 0 -92 -263 0 0 92 -48 0 0 -140 31 0c33,-49 48,-146 48,-294l0 -59 0 0zm191 48l-139 0 0 19c0,34 -4,81 -10,141 -6,58 -18,107 -35,145l184 0 0 -305 0 0zm397 353l0 -401 150 0c31,0 55,4 73,12 20,9 33,21 44,38 11,16 16,34 16,53 0,17 -5,33 -15,47 -8,16 -23,28 -41,37 24,7 43,20 56,37 12,17 20,37 20,61 0,18 -4,35 -13,51 -7,17 -17,29 -29,38 -11,8 -25,14 -44,19 -17,5 -39,8 -65,8l-152 0zm54 -232l86 0c24,0 41,-2 50,-5 14,-4 24,-11 31,-20 6,-10 10,-22 10,-35 0,-14 -3,-26 -10,-36 -6,-9 -15,-17 -27,-20 -12,-4 -32,-5 -61,-5l-79 0 0 121 0 0zm0 184l98 0c18,0 30,0 37,-1 12,-3 22,-6 31,-11 8,-6 14,-14 20,-23 5,-10 8,-21 8,-33 0,-16 -4,-28 -11,-39 -9,-11 -19,-20 -32,-24 -15,-4 -34,-7 -59,-7l-92 0 0 138 0 0zm570 -353l49 0 0 316 212 -316 53 0 0 401 -48 0 0 -317 -212 317 -54 0 0 -401zm891 0l0 176c26,0 43,-5 53,-15 10,-9 22,-31 38,-67 11,-27 19,-45 27,-56 7,-11 17,-20 30,-27 14,-7 28,-11 44,-11 17,0 28,0 32,0l0 47c-1,0 -5,0 -10,-2 -6,0 -10,0 -11,0 -17,0 -29,5 -38,12 -7,9 -17,26 -28,53 -12,29 -22,49 -30,60 -9,10 -21,18 -37,25 26,8 51,32 76,73l83 133 -66 0 -67 -109c-18,-29 -33,-49 -46,-61 -12,-12 -29,-18 -50,-18l0 188 -55 0 0 -188c-17,0 -33,4 -46,14 -13,9 -28,28 -46,59l-4 6 -67 109 -65 0 82 -133c25,-42 51,-65 77,-73 -15,-6 -27,-13 -36,-23 -9,-9 -19,-30 -33,-62 -11,-28 -20,-46 -29,-54 -8,-7 -19,-11 -37,-11l-20 2 0 -47c2,0 12,0 30,0 17,0 33,4 45,11 14,6 24,16 31,27 7,11 17,29 28,56 15,36 27,59 37,67 9,10 28,14 53,15l0 -176 55 0 0 0zm523 0l48 0 0 316 213 -316 52 0 0 401 -48 0 0 -317 -212 317 -53 0 0 -401zm647 401l0 -401 80 0 94 283c9,26 15,47 19,59 5,-13 12,-35 22,-63l95 -279 71 0 0 401 -50 0 0 -335 -117 335 -48 0 -115 -341 0 341 -51 0 0 0zm699 -196c0,-66 17,-118 53,-155 36,-38 82,-56 138,-56 37,0 70,9 101,26 29,18 51,42 67,74 16,31 23,67 23,106 0,42 -9,77 -24,109 -16,33 -40,56 -70,73 -31,16 -62,25 -97,25 -37,0 -72,-9 -101,-27 -29,-18 -52,-43 -67,-75 -16,-31 -23,-64 -23,-100zm55 2c0,47 12,85 38,113 26,28 58,42 97,42 41,0 73,-14 99,-42 26,-28 38,-68 38,-120 0,-31 -5,-61 -16,-84 -11,-24 -27,-44 -49,-56 -21,-13 -44,-21 -71,-21 -37,0 -69,14 -96,39 -27,26 -40,69 -40,129l0 0zm928 53l53 14c-11,42 -31,75 -59,99 -30,23 -65,34 -107,34 -42,0 -77,-9 -105,-27 -27,-17 -46,-43 -61,-76 -13,-33 -20,-68 -20,-107 0,-42 7,-77 23,-109 16,-31 39,-54 68,-71 29,-16 61,-23 97,-23 40,0 73,10 101,30 27,20 45,49 56,86l-51 12c-10,-29 -23,-50 -40,-63 -19,-14 -41,-20 -68,-20 -30,0 -56,7 -77,22 -19,15 -34,34 -42,59 -9,25 -13,51 -13,77 0,34 5,63 15,89 10,25 25,44 45,57 21,12 44,19 69,19 29,0 53,-9 74,-26 21,-17 34,-43 42,-76l0 0zm450 141l0 -353 -132 0 0 -48 317 0 0 48 -132 0 0 353 -53 0 0 0zm489 -401l47 0 0 316 214 -316 51 0 0 401 -47 0 0 -317 -213 317 -52 0 0 -401z"/>
    <polygon class="fil1" points="4319,11174 4126,11174 4126,10119 3770,10119 3770,11174 3577,11174 3577,9954 4319,9954 "/>
    <polygon class="fil1" points="4560,9954 5214,9954 5214,10119 4753,10119 4753,10457 5187,10457 5187,10621 4753,10621 4753,11010 5228,11010 5228,11174 4560,11174 "/>
    <path class="fil1" d="M5418 9954l382 0c232,0 333,148 333,355 0,219 -128,362 -354,362l-168 0 0 503 -193 0 0 -1220 0 0zm193 569l136 0c104,0 193,-55 193,-210 0,-132 -52,-211 -206,-211l-123 0 0 421z"/>
    <path class="fil1" d="M6277 10565c0,-436 96,-634 401,-634 344,0 365,254 365,382l0 22 -194 0 0 -20c0,-114 -29,-238 -171,-238 -145,0 -208,90 -208,483 0,392 63,492 207,492 162,0 179,-180 179,-294l0 -21 193 0 0 25c0,220 -89,436 -372,436 -304,0 -400,-197 -400,-633l0 0z"/>
    <polygon class="fil1" points="7969,11174 7776,11174 7776,10119 7420,10119 7420,11174 7227,11174 7227,9954 7969,9954 "/>
    <polygon class="fil1" points="8211,9954 8864,9954 8864,10119 8403,10119 8403,10457 8837,10457 8837,10621 8403,10621 8403,11010 8877,11010 8877,11174 8211,11174 "/>
    <polygon class="fil1" points="9067,9954 9259,9954 9259,10485 9263,10485 9628,9954 9841,9954 9492,10468 9877,11174 9659,11174 9367,10626 9259,10780 9259,11174 9067,11174 "/>
    <polygon class="fil1" points="10186,10119 9898,10119 9898,9954 10661,9954 10661,10119 10379,10119 10379,11174 10186,11174 "/>
    <path class="fil1" d="M11574 11174l-193 0 0 -618c0,-59 3,-223 5,-282l-5 0c-17,46 -39,106 -72,193l-276 707 -219 0 0 -1220 193 0 0 624c0,57 -1,220 -5,277l5 0c15,-50 59,-166 118,-318l230 -583 219 0 0 1220z"/>
    <path class="fil1" d="M11815 9954l392 0c181,0 325,82 325,296 0,147 -60,239 -178,277l0 3c132,24 217,104 217,311 0,205 -146,333 -372,333l-384 0 0 -1220zm346 514c117,0 178,-77 178,-193 0,-145 -86,-173 -195,-173l-136 0 0 366 153 0zm39 559c115,0 178,-73 178,-215 0,-131 -77,-207 -190,-207l-180 0 0 422 192 0z"/>
    <path class="fil1" d="M12996 9954l247 0 319 1220 -202 0 -74 -299 -355 0 -78 299 -201 0 344 -1220 0 0zm257 766l-138 -601 -4 0 -144 601 286 0z"/>
    <path class="fil1" d="M8253 7247l1845 -704 -694 696 -825 336 -326 -328 0 0zm960 1162l109 109 -328 327 -107 -108 326 -328zm-449 328l-354 354 -353 -353 354 -354 353 353z"/>
    <path class="fil1" d="M8914 6145c102,-102 155,-189 157,-259 3,-69 -25,-133 -81,-189 -57,-56 -119,-85 -187,-85 -67,0 -142,41 -225,124l-245 246 -340 -340 222 -222c185,-186 373,-282 562,-291 189,-9 373,75 548,252 178,176 262,359 252,548 -9,189 -105,377 -291,562 -119,120 -245,211 -377,273 -132,61 -264,105 -397,132 -132,26 -264,42 -393,48 -130,5 -252,11 -366,19 -114,8 -218,22 -311,46 -92,23 -169,66 -233,129 -22,22 -36,39 -46,53l680 679 -327 327 -1038 -1039 281 -281c111,-111 226,-192 345,-242 120,-50 242,-84 367,-101 124,-17 247,-27 371,-28 122,-2 245,-10 369,-26 123,-17 243,-49 361,-97 117,-47 231,-128 342,-238l0 0z"/>
    <polygon class="fil2" points="10296,6468 8825,7945 8146,7263 7781,7628 8825,8676 10661,6833 "/>
   </g>
  </g>
  <rect class="fil3 str0" x="27" y="27" width="17085" height="17085"/>
 </g>
</svg>
