<?xml version="1.0" encoding="UTF-8"?>
<!DOCTYPE svg PUBLIC "-//W3C//DTD SVG 1.1//EN" "http://www.w3.org/Graphics/SVG/1.1/DTD/svg11.dtd">
<!-- Creator: CorelDRAW X7 -->
<svg xmlns="http://www.w3.org/2000/svg" xml:space="preserve" width="372px" height="372px" version="1.1" style="shape-rendering:geometricPrecision; text-rendering:geometricPrecision; image-rendering:optimizeQuality; fill-rule:evenodd; clip-rule:evenodd"
viewBox="0 0 140333 140332"
 xmlns:xlink="http://www.w3.org/1999/xlink">
 <defs>
  <style type="text/css">
   <![CDATA[
    .str0 {stroke:#EBECEC;stroke-width:445.178}
    .fil3 {fill:none}
    .fil2 {fill:none;fill-rule:nonzero}
    .fil0 {fill:#2B2A29}
    .fil1 {fill:#2B2A29;fill-rule:nonzero}
   ]]>
  </style>
 </defs>
 <g id="Слой_x0020_1">
  <metadata id="CorelCorpID_0Corel-Layer"/>
  <g id="_2419673177312">
   <g id="_2219971034896">
    <path class="fil0" d="M55982 69896c0,1574 1555,683 1138,2181 995,-332 1564,-1375 2664,-617 1005,693 1878,740 1460,2437 -180,-218 -312,-1185 -1147,-1469 540,474 1034,1365 313,2152 -10,-322 -266,-1014 -825,-1413 76,247 304,541 398,864 57,179 67,568 38,758 -104,47 -237,94 -351,47 -322,-142 162,-379 -711,-1024 -142,-114 -275,-228 -417,-341 -19,-19 -57,-57 -85,-86 284,456 721,968 796,1423 0,0 -189,104 -199,104 -246,85 -919,152 -1536,-341 -85,-76 -152,-123 -190,-171 -95,-104 -142,-142 -313,-152 10,171 -18,285 -75,379 -1025,-293 -1565,-1023 -2172,-1668 -436,-474 -2342,-2788 -1981,-3632 56,-142 748,-1119 843,-1213 342,-313 1375,-370 920,-2883 531,-1280 597,-2058 1005,-3243 322,-910 901,-1650 2418,-1612 1223,38 1981,693 2342,1546 1356,3556 -2684,5955 -3973,7396 -142,161 -380,360 -360,578l0 0zm35443 -17115c-47,95 -95,200 -133,313 -113,313 -161,673 -142,1034l0 9c29,1195 607,1754 607,1754 -19,133 -38,247 -57,351 -19,67 -38,143 -66,228 -190,512 -503,474 -503,474 0,0 -569,47 -645,-1053 0,0 579,-559 607,-1754l0 -9c19,-361 -29,-721 -142,-1034 -29,-104 -76,-199 -123,-294 -10,-37 -29,-66 -48,-104 -19,-38 -47,-67 -66,-95 -85,-123 -152,-189 -152,-189 -10,-10 -10,0 -10,19 -37,56 -85,113 -132,170 -10,20 -29,38 -48,57 -180,190 -379,294 -474,342 -9,9 -28,19 -47,19 189,-1233 863,-1479 1014,-1518 76,29 152,57 238,57 85,0 170,-28 246,-66 0,0 825,133 1043,1527 -19,0 -28,-10 -47,-19 -85,-48 -294,-152 -474,-342 -19,-19 -38,-37 -48,-57 -57,-57 -104,-123 -142,-189 0,0 -123,123 -256,370l0 -1zm-4551 -863c0,0 -76,29 -171,86l-19 9 0 0c-95,38 -180,85 -265,133 -105,57 -218,133 -304,199 -246,180 -455,398 -635,645l0 0c0,0 0,9 -9,28 -171,237 -294,512 -380,806l0 0c-28,104 -47,209 -66,323l0 0 0 0c-19,142 -29,284 -29,426 0,209 19,408 57,588l0 10 0 0c57,255 152,502 266,720l0 0 9 0c114,209 256,389 417,560 285,312 560,483 560,483l0 0c417,303 910,560 1422,778 38,19 67,38 104,47 0,0 10,10 19,10 67,28 143,57 209,85 19,9 38,19 57,29l-29 -10c10,10 20,10 29,19l28 9c930,493 1100,977 1100,1214 0,190 -94,266 -142,294 -38,-275 -265,-493 -550,-493 -123,0 -237,38 -323,104 -606,266 -445,1498 750,1498 976,0 1886,-1583 265,-2626 -265,-171 -161,-76 -1489,-759 -1043,-587 -1896,-1317 -1896,-2380 0,-957 493,-1678 1290,-2086 398,721 1175,1214 2057,1214 436,0 844,-114 1185,-322 10,19 57,256 57,550 -38,1005 -673,2114 -1687,2057 -427,10 -854,-398 -854,-900 0,-266 95,-474 247,-626 28,-29 57,-48 75,-57 77,170 256,294 465,294 275,0 503,-228 503,-512 0,-275 -228,-503 -503,-503 -28,0 -47,0 -76,0 10,0 19,0 29,0 -693,0 -1337,607 -1337,1451 0,796 597,1403 1384,1432 209,9 399,-10 588,-57l0 0c398,-86 673,-294 673,-294 0,0 67,938 740,1233 -152,113 -247,293 -247,502 0,209 104,398 266,512 -1110,247 -275,1763 -275,1763l-38 0c-180,20 -275,181 -275,181 0,0 95,445 275,512 0,0 -579,360 -560,616 10,29 19,57 38,76 95,190 446,882 446,1290 -152,28 -180,132 -190,161 0,19 0,19 0,19 0,0 10,151 190,180l0 47c-171,124 -427,351 -417,522 0,38 19,76 57,114 274,341 341,1394 360,2105l0 682 0 3679c-151,19 -180,124 -190,162 0,9 0,9 0,9 0,0 10,152 190,180l0 104 0 0c-151,29 -180,124 -190,162 0,19 0,19 0,19 0,0 10,151 190,180l0 4589c-151,19 -190,123 -190,161 -9,19 -9,19 -9,19 0,0 9,133 170,171 -170,123 -464,350 -455,540 10,123 171,209 636,247 -67,28 -85,85 -95,114 0,9 0,9 0,9 0,0 10,114 152,133 0,9 256,19 578,19 323,0 579,-10 579,-19 142,-19 152,-133 152,-133l0 0c0,0 -10,-95 -105,-123 427,-38 579,-123 588,-247 19,-180 -256,-417 -408,-540 171,-29 181,-171 181,-171l0 0c0,0 -10,-152 -200,-180l0 -256 474 0c0,-332 256,-588 578,-588 323,0 589,256 589,588l1621 0 0 -777 -1138 0 0 -721 1138 0 0 -834 -1138 -10 0 -721 1138 0 0 -739 -1621 0c0,331 -256,587 -589,587 -322,0 -578,-265 -578,-587l-474 0 0 -531c200,-29 209,-181 209,-181l0 0c0,0 -9,-161 -209,-180l0 -104c200,-19 209,-180 209,-180l0 0c0,0 -9,-152 -209,-180l0 -3670 0 -654c38,-1404 351,-2001 446,-2152 28,-29 38,-67 47,-95 19,-209 -332,-474 -464,-579 171,-28 180,-170 180,-170l0 0c0,0 -9,-152 -190,-181 0,0 0,0 0,0 -10,-464 360,-1251 389,-1308 10,-19 19,-38 19,-57 19,-256 -522,-616 -522,-616 181,-67 285,-512 285,-512 0,0 -104,-161 -275,-181l0 0 0 0 0 0c0,0 853,-1564 -332,-1773l0 0c142,-123 237,-303 237,-502 0,-190 -85,-370 -218,-484 721,-275 787,-1251 787,-1251 0,0 275,208 673,294l0 0c190,47 380,66 588,57 787,-29 1384,-636 1384,-1432 0,-844 -644,-1451 -1336,-1451 9,0 18,0 28,0 -28,0 -48,0 -76,0 -275,0 -503,228 -503,503 0,284 228,512 503,512 209,0 389,-124 465,-294 18,9 47,28 75,57 105,104 181,227 218,379 20,66 29,142 29,218 0,10 0,19 0,29 0,502 -427,910 -853,901 -1205,66 -1878,-1517 -1640,-2608 350,209 758,323 1194,323 882,0 1660,-494 2058,-1214 796,408 1289,1128 1289,2086 0,1062 -853,1792 -1896,2380 -664,341 -1100,512 -1498,768 -1612,1043 -702,2617 274,2617 1195,0 1356,-1233 750,-1499 -86,-66 -200,-104 -323,-104 -284,0 -512,218 -550,494 -48,-29 -142,-105 -142,-294 0,-238 171,-721 1100,-1214l28 -10c10,-9 19,-9 29,-19l-29 10c19,-10 38,-19 57,-29 67,-28 143,-56 209,-85 9,0 19,-9 19,-9 38,-10 66,-29 104,-48 512,-218 1005,-474 1422,-777l0 0c0,0 266,-171 560,-474 161,-181 303,-370 426,-569 209,-380 323,-807 323,-1318 0,-1176 -674,-2096 -1688,-2561l0 0c-66,-38 -133,-66 -208,-95 28,-132 37,-265 37,-398 0,-208 -28,-407 -76,-597 0,-19 -9,-28 -9,-38 0,0 0,0 0,10 -275,-1006 -1186,-1736 -2266,-1736 -787,0 -1489,399 -1916,1005 -331,-483 -843,-834 -1431,-957 -228,-503 -531,-446 -1062,-522l-67 256c-882,19 -730,626 -1583,645 474,-560 1072,-588 1147,-1583 38,-10 76,-29 114,-48 -19,29 -29,57 -38,76 161,559 142,664 483,512 276,-123 911,-417 1053,-635 -114,-209 -474,-123 -683,-123l-550 -10c57,-47 95,-95 105,-104 161,-162 369,-190 673,-219 161,-18 170,-18 256,-113 -104,-218 -417,-360 -674,-408 -483,-38 -692,0 -1080,-66 -10,256 19,502 66,749 -246,-171 -322,-503 -218,-778 0,-66 -57,-94 -171,-104 -1176,370 -512,919 -2105,2029 -1887,1309 -787,1527 -1564,2390l-57 -636c-484,1242 -1166,2238 -1925,3281 -275,380 -2816,3508 -3110,3708 -180,123 -370,189 -597,199 -29,0 -48,0 -76,0 -29,123 -67,256 -114,398l-199 645 -199 -645c-38,-123 -95,-294 -171,-465 -9,209 -19,417 -38,636 -57,493 -133,995 -218,1488l-76 417 -285 -313c-398,-445 -616,-966 -758,-1526 0,237 29,483 57,721 104,758 332,1488 664,2076l265 484 -521 -190c-209,-76 -418,-190 -607,-351 123,674 815,2371 1185,2920 76,124 171,219 275,323 -531,-1366 -578,-1896 -503,-1991 285,910 740,910 920,1953 161,-313 399,-503 474,-939 285,550 67,1148 104,1726 1309,-777 2978,-3413 3025,-3489 95,208 180,436 247,673l882 -3205c208,256 284,588 389,910 313,-246 1204,-4181 1441,-5053 237,-882 559,-721 0,-1234 502,-47 711,-227 901,-663 132,-332 445,-958 -105,-1024 -208,-190 -85,-389 -28,-503 218,152 294,133 351,380 161,66 256,94 483,47 389,-95 294,-199 427,-294 265,-180 133,-28 455,-28 38,0 76,0 104,-10 0,209 19,341 19,341l1 0zm3726 -986c-161,76 -588,275 -844,731 0,0 0,0 0,0 0,0 0,0 -9,9 0,19 -10,28 -19,47 0,10 -10,20 -10,29 -9,9 -19,28 -28,48 -29,85 -57,170 -85,265 0,19 -10,38 -10,57 -10,38 -10,76 -19,113 -9,77 -9,162 -9,256 0,20 0,29 0,48 0,0 -436,-768 -1963,-730l0 0c-19,-95 -28,-190 -28,-285 0,-170 28,-341 85,-502 19,-10 37,-19 57,-29 464,-171 663,-123 986,-464 -181,-162 -209,-237 -645,-162 180,-189 408,-322 664,-407 132,123 -38,142 351,66 274,-57 350,-76 360,-76 9,-9 19,-19 19,-38 531,76 977,417 1204,882 -19,48 -38,95 -57,142zm967 -94c256,-560 816,-949 1470,-949 901,0 1631,730 1631,1631 0,95 -10,190 -28,285l0 0c-1527,-38 -1963,730 -1963,730 0,-19 0,-29 0,-48 0,-94 0,-180 -10,-256 -9,-38 -9,-76 -19,-114l0 0 0 0 0 0 0 0 0 0 0 0 0 0 0 -9 0 0 0 0 0 0 0 0 0 0 0 0 0 0 0 0 0 0 0 -9 0 0 0 0 0 0 0 0 0 0 0 0 0 0 -9 0 0 0 0 0 0 -10 0 0 0 0 0 0 0 0c0,-9 0,-28 -10,-38 -19,-85 -38,-170 -76,-246l0 0 0 0c-9,-20 -9,-29 -19,-38l0 0 0 0 0 0 0 -10 0 0 0 0 0 0 0 0 0 0 0 0 0 0 0 0 0 0 0 0 0 0 0 0 0 0 0 0 0 -9 0 0 0 0 0 0 0 0 0 0 0 0 -9 0 0 0c0,-10 -10,-20 -10,-29l0 0 0 0 0 0c-9,-19 -18,-38 -18,-47l0 0 0 0 0 0c-10,-10 -10,-10 -10,-10 0,0 0,0 0,0 -284,-503 -778,-702 -892,-739 -9,-29 -18,-57 -28,-86l0 1zm-2019 2285l0 0c0,0 -10,0 -19,0l0 0 0 0c-67,19 -285,47 -531,19 -455,-57 -844,-304 -1100,-645 711,-10 1346,323 1650,626l0 0 0 0zm4798 -626c-294,398 -768,664 -1309,664 -114,0 -228,-20 -341,-38l0 0c303,-304 938,-636 1650,-626zm-38554 -12109c-1233,-1583 -2371,-3318 -3186,-5546 1679,3432 3869,6087 6381,8239 -891,-1223 -2076,-3385 -1858,-5423 -1214,-1622 -2551,-4068 -2560,-6799 379,2589 1431,4656 2636,6192 123,-370 284,-777 502,-1119 -1564,-2181 -2351,-6618 -1830,-9102 -2806,1602 -2968,6428 -1072,10022 -1175,-1451 -2161,-3859 -2389,-6230 -2361,1821 -967,7396 1138,9340 -958,-578 -1925,-1413 -2551,-2617 -1242,2588 1537,5329 3120,6476 -977,-417 -1802,-1090 -2560,-1849 -143,218 -143,569 -133,835 142,2578 2256,3517 3669,4352 -1071,-218 -1981,-683 -2835,-1233 -9,2674 2399,3224 4144,3840 -1072,38 -2209,-275 -3082,-550 550,1792 2115,2323 3736,2579 -76,-123 -133,-275 -142,-426 702,180 1669,246 2579,218 -1347,-598 -2977,-1119 -3186,-3253 1280,636 2589,1233 4153,1442 -2181,-863 -5186,-1764 -5168,-5082 1385,834 2750,1707 4305,2285 -1773,-1025 -4589,-3357 -3811,-6590l0 -1zm304 674c-48,133 -29,682 -20,806 29,455 143,872 294,1261 560,1422 1793,2465 2779,3148 1441,1005 3110,1517 4665,2057 -3091,-388 -5775,-1573 -8126,-2977 351,2294 2219,3186 3811,3783 1546,579 3281,920 5026,825 -57,-161 -114,-322 -161,-493 -19,-66 -38,-142 -57,-209 -10,-37 -19,-75 -29,-113 -2323,-86 -4389,-569 -6125,-1565 1697,692 3736,1271 5888,1271 48,0 114,0 171,0 -105,-437 -209,-910 -341,-1385 -2267,-777 -4324,-1877 -5964,-3631 1706,1450 3669,2664 5859,3261 -38,-75 -66,-151 -104,-218 -474,-749 -1451,-995 -2190,-1394 -645,-351 -1347,-834 -1906,-1232 -1176,-844 -2475,-1963 -3470,-3196l0 1zm10022 11463c-1479,778 -3831,1622 -5623,1403 -484,181 -1090,351 -1574,484 1811,1489 5424,-237 6998,-1574 113,-95 190,-161 275,-246 -28,-19 -48,-48 -76,-67zm379 313c-1185,825 -2427,1622 -4087,2134 -531,502 -1033,1023 -1649,1469 2655,541 4627,-2076 5736,-3603l0 0zm-3754 4239c2512,237 3555,-2314 4323,-3869 -104,-57 -209,-123 -313,-190 -483,635 -1033,1280 -1602,1859 -759,777 -1859,1280 -2408,2200l0 0zm2228 445c1849,-616 2285,-2389 2768,-3982 -132,-57 -256,-114 -379,-180 -635,1157 -1195,2361 -2229,3261 -57,238 -170,598 -161,901l1 0zm3072 -3840c-133,1261 -1745,2475 -579,3793 977,-740 1176,-2210 863,-3670l-28 -9c-228,531 -190,1403 -484,1953 38,-692 332,-1422 228,-2067l0 0zm-2731 -1915c-2551,483 -5566,455 -7766,76 1214,2645 5680,2010 8354,455 -29,-38 -67,-76 -104,-114 -20,-28 -48,-67 -77,-104 -142,28 -531,132 -644,161 -1347,332 -3224,768 -4495,522 1470,-57 3661,-342 4959,-920 -199,-266 -379,-560 -550,-882 -1982,218 -3773,133 -5291,-360 1565,246 3291,426 5159,104 -76,-152 -143,-304 -218,-465 -2911,10 -5737,-123 -7832,-1375 1185,3101 5120,2968 8505,2902l0 0zm-10515 227c407,1498 2531,1546 3991,1669 -616,322 -1545,360 -2332,464 -636,86 -1223,228 -1821,465 -758,303 -1517,749 -2114,1195 -370,285 -474,313 -815,550 -1347,901 -3727,5585 -6344,5044 -1460,-303 -1517,-2693 -711,-3935 483,-749 834,-957 1356,-1640 351,-465 844,-1147 1157,-1716 787,-1451 1109,-2940 208,-4466 -360,-626 -720,-1138 -1118,-1736 -607,-929 -171,-1356 -57,-2380 199,-1669 -332,-3660 -1622,-3897 920,1480 294,2836 0,4694 -370,-806 209,-2114 0,-3205 -1602,5187 427,3755 2209,6581 1944,3081 -1536,6485 -2162,6665 646,-1687 3016,-2465 2276,-5717 -19,806 -114,1602 -370,2276 -815,2171 -4921,4788 -2873,8410 740,1318 1906,1280 2750,1166 1508,-189 2228,-1175 3243,-2342 293,-351 550,-721 825,-1081 616,-768 1194,-1441 1943,-1878 -199,503 -777,1233 -1128,1736 -2124,2456 -1839,4694 -2797,6125 -28,-379 484,-3157 559,-3404 -132,-132 -796,2324 -834,2532 -228,1109 -427,1242 -958,1916 -1830,2256 -1640,1706 -2740,2057 -360,114 -550,190 -645,673 -274,1271 -9,5727 930,6922 1431,1802 976,796 1261,635 303,806 180,1015 1166,1034 559,9 569,-95 768,-133 313,-47 379,133 673,114 -29,-1897 -1280,-664 -1479,-2465 1621,815 1887,2361 1944,2436 379,-113 417,-360 407,-758 -28,-910 -312,-749 -767,-1498l0 0c909,749 853,891 1033,2000 597,-113 654,-682 427,-1365 -199,-569 -437,-550 -787,-1024 683,294 1081,910 1128,1906 152,-124 161,28 360,-417 380,-854 -1327,-2722 -2038,-2807 -417,-57 -844,47 -1261,114 -740,-465 -1356,-1982 -1034,-3167 161,-579 740,-579 1394,-778 493,-161 1015,-369 1470,-578 1081,-503 1555,-1318 2484,-1736 910,-398 1460,-834 1839,-1412 361,-541 569,-1214 778,-2096 341,-1422 692,-2939 2010,-3508 1840,-796 3622,142 5225,2124l-313 -692c644,142 1242,569 1612,986 132,-303 104,-437 104,-664 512,332 1517,1498 2285,1697l-95 -1062c304,209 607,503 787,844 114,-265 67,-502 57,-588 692,228 834,1053 1508,1432 -152,-645 19,-806 -105,-1271 825,285 1242,1404 2314,1698 -142,-389 -294,-787 -436,-1185 1043,569 1062,1896 1622,2607 284,-398 464,-844 540,-1356 47,152 398,588 569,1366 57,-67 85,-133 104,-256 332,275 531,986 749,1431 -104,-673 48,-1128 -47,-1707 293,484 95,1015 578,1612 1252,1555 1631,2949 2541,3888 38,-702 -161,-1394 -38,-2124 76,351 332,1536 361,2095 38,645 -133,1717 189,2229 228,351 484,351 693,664 294,445 331,1858 1517,2247 19,-38 38,-114 47,-304l-85 -768c161,181 -10,-66 199,275 569,948 199,1309 1432,1461 740,94 2171,360 2730,57 655,-1025 -644,-1470 -796,-2181 29,18 66,47 76,57l455 398c702,550 702,256 740,1726 379,-124 445,-171 758,-351 152,-2342 -483,-1147 -787,-2181 1280,711 731,445 1214,1792 398,-380 607,-844 370,-1508 -180,-493 -1650,-1517 -2465,-1479 -1063,38 -1006,322 -1707,398 -1271,-1052 -2333,-4048 -2797,-5869l-560 -1650c-152,-341 -388,-796 -597,-1062l-10 -9c-114,-143 -199,-294 -293,-455l-10 -19 -19 -38c-10,-29 -28,-57 -38,-76 -152,-303 -1223,-2646 -1185,-3613 -247,-247 -465,-559 -664,-910 -228,-436 -417,-948 -540,-1508 -124,380 -238,560 -475,958l0 0 -9 19 -322 531 -57 -616c-76,-636 -247,-1299 -494,-1925 -199,-493 -426,-967 -682,-1394 -10,360 -28,721 -162,1147l-142 446 -227 -408c-342,-588 -948,-1413 -1621,-2076 -475,-465 -987,-844 -1461,-1015 114,1242 -76,2627 -711,3394 -114,133 -379,399 -569,427 -465,-303 -588,-815 -711,-1233 -484,446 -1128,1347 -2181,1205 19,-323 95,-607 161,-901 -559,388 -1877,711 -2446,313 38,-247 171,-436 256,-598 -910,361 -1887,332 -2447,-66 446,-560 1157,-939 1679,-1451 -1252,190 -2257,209 -3547,-834 455,-209 1205,-294 1546,-503 -1090,-284 -1963,-910 -2607,-1896 -816,66 -1641,152 -2342,38l0 0zm15891 -13322c0,-47 -9,-85 -9,-142 -38,-332 -124,-664 -256,-967 114,28 209,104 265,199 -76,-436 -247,-853 -512,-1233 1233,1119 2911,1954 4457,2551 1005,436 1943,1005 2816,1678 445,342 796,816 995,1366 645,313 1063,939 1129,1650 38,493 -105,986 -389,1375l0 0c-9,-29 -9,-57 -9,-86 -29,-369 -209,-701 -503,-929 -768,-559 -1783,-1081 -2721,-1204 597,-578 1431,-834 2247,-683 -721,-976 -1622,-1517 -2798,-1820 105,47 200,113 285,208 95,105 171,228 218,361 -910,-512 -1963,-740 -3006,-654 -312,18 -625,75 -929,161 664,18 1328,123 1972,312 -57,190 -76,389 -57,588 29,275 105,531 247,759 -123,0 -256,-48 -370,-95 218,370 559,654 967,787 -360,171 -682,408 -948,711 275,-85 550,-152 835,-199 1365,-209 2759,95 3915,854 323,179 551,483 636,843 0,29 9,57 9,86 -787,-1148 -2910,-1233 -4030,-759 -512,209 -711,834 -417,1299 256,417 313,417 683,768 588,569 1033,1204 1337,1915 -161,-47 -503,-132 -702,-85 531,417 920,834 1100,1479 -161,-57 -806,-379 -1166,-360 455,597 863,1233 1109,1934 -483,-303 -1024,-939 -1953,-1166 227,322 389,683 455,1071 -920,-805 -2095,-1602 -3897,-1678 -29,427 28,873 294,1242 -1460,-303 -2191,-1233 -2892,-1953 -29,645 57,1015 275,1498 -987,-692 -1536,-1631 -1631,-2740 -484,2513 1460,3338 2664,3698 -331,-351 -559,-825 -664,-1290 740,854 2163,1413 3319,1404 -388,-446 -901,-825 -948,-1432 1612,275 3357,1404 3983,2522 37,-502 -10,-967 -181,-1375 588,721 996,1897 929,3063 -322,-721 -796,-1375 -1573,-1887 208,683 597,1640 398,2646 -787,-750 -1119,-1044 -1849,-1299 38,293 417,777 474,1194 -787,105 -1555,-408 -2001,-815 -455,-427 -805,-929 -1071,-1328 0,569 123,768 209,1157 -589,-569 -1593,-1128 -1916,-1820 -76,407 332,768 361,1137 -2987,-2256 -4893,-3963 -1356,-8827 -418,350 -702,815 -1555,853 1204,-853 929,-2371 1839,-2636 -474,-209 -597,-351 -645,-967 692,360 1072,265 1527,-313 -531,95 -522,275 -1024,190 161,-57 161,-57 332,-436 1014,-2295 1033,-1224 1260,-1802 39,-521 -179,-1052 10,-1564 104,313 123,711 427,986l0 -1zm-588 4647c398,-333 882,-570 1233,-598 -1005,616 -1280,1280 -1413,1726 -275,-398 -322,-711 -208,-1062 -57,28 -294,142 -456,199 152,-560 513,-815 1034,-1015 -180,209 -190,560 -190,750l0 0zm6012 -1508c-95,113 -228,189 -380,209 -293,18 -549,-200 -569,-494 0,-9 0,-28 0,-38 171,57 351,76 522,67 -332,-190 -673,-360 -1033,-503 -67,143 -95,304 -86,465 38,483 474,853 958,815 294,-28 550,-199 692,-445 -38,-29 -76,-57 -104,-76zm1583 12990c247,265 417,777 569,948 -19,-834 -19,-1659 -142,-2437 247,266 313,626 512,920 114,-1536 -275,-2835 -910,-4020 142,445 303,825 313,1308 -285,-379 -607,-967 -996,-1157 522,825 664,1821 645,2902 -123,-190 -265,-598 -521,-588 379,796 246,2048 -152,3072 -48,-427 -256,-768 -569,-1072 -67,560 -436,1062 -759,1318 -199,-436 -550,-796 -938,-1137 -10,274 -76,568 -152,843 -1053,-199 -2181,-900 -2778,-1763 28,265 9,360 -48,531 -38,-38 -1024,-892 -1592,-1214 9,142 -29,322 -77,379 -1080,-796 -2645,-1602 -3290,-2597 -559,-873 -1233,-2371 -1005,-3718 57,-303 398,-626 323,-1005 -76,-341 -797,-758 -1110,-967 -1270,-834 -2465,-1555 -3423,-2768 -1337,-1707 -2522,-4210 -2787,-6960 -2352,1204 -1091,5139 303,7054 901,1242 2001,2238 3252,2959 598,341 1441,483 1707,1365 313,1043 427,2020 768,2854 322,797 759,1546 1223,2105 815,986 1897,1309 2911,1802 569,227 1053,635 1489,1062 550,540 1052,1185 1422,1735 28,-237 38,-465 38,-692 10,-190 10,-370 28,-541l48 -578 322 474c408,597 787,1299 1072,2029 180,465 332,957 426,1441 143,-284 228,-578 427,-1337l342 -1280 66 1328c47,901 275,1706 625,2351 219,399 475,730 759,967 -199,-493 -341,-1043 -417,-1602 -171,-1271 -9,-2010 322,-3177l200 1091c113,768 236,1555 616,2190 57,-341 104,-673 132,-986 48,-474 67,-919 38,-1356l-47 -569c370,379 578,588 806,1081 161,-654 95,-1915 10,-2588l-1 0zm2693 5898c1100,-1811 1621,-3205 2190,-4191 -246,1716 -739,3167 -2190,4191zm-35955 9586c-104,-891 -218,-1583 579,-1745 -285,522 -437,1129 -579,1745zm2199 2949c-407,-209 -1441,-616 -966,-2181 189,-380 208,-512 521,-797 -465,1119 28,2636 445,2978zm4960 -6913c578,-18 1128,-388 1573,-739 -189,483 -1090,986 -1535,1204 -797,399 -1091,910 -1698,1185 313,-578 816,-900 1090,-1773 294,-881 275,-1403 655,-2190 -10,209 -361,2323 -86,2313l1 0zm-1622 1773l0 0zm5547 4855c-502,-1166 -1033,-2209 -1612,-3072 124,95 1081,1005 1167,1148 208,388 407,1431 445,1924zm3973 -11274c977,2570 -76,3793 -616,4410 76,-399 569,-1224 616,-4410z"/>
    <path class="fil1" d="M44215 84631l-929 0 0 2323 1023 0c95,-294 304,-739 882,-1072 446,-274 901,-331 1385,-331 483,0 1081,66 1593,473 370,304 768,845 796,1660l-3195 0 0 920 3205 0c-29,730 -341,1327 -711,1688 -399,388 -1006,663 -1754,663 -645,0 -1214,-218 -1631,-559 -76,-57 -617,-522 -920,-1385l-872 560c237,616 663,1270 1090,1650 522,455 1280,777 2333,777 853,0 1659,-199 2351,-806 673,-588 1252,-1612 1252,-3081 0,-910 -247,-1745 -721,-2371 -389,-503 -1204,-1233 -2693,-1233 -502,0 -1062,95 -1527,313 -341,152 -673,380 -957,740l0 -929 0 0z"/>
    <path class="fil1" d="M58182 91856l0 -948 -854 0 0 -5395 854 0 0 -882 -6448 0 0 882 976 0 0 1318c0,588 -57,1858 -85,2266 -66,777 -237,1166 -398,1384 -275,380 -654,474 -1043,474 -114,0 -209,-9 -313,-28l0 929c114,19 304,57 522,57 891,0 1422,-445 1716,-891 341,-531 465,-1271 531,-2172 38,-578 57,-1431 57,-1962l0 -1375 2607 0 0 5404 -872 0 0 939 2750 0 0 0z"/>
    <polygon class="fil1" points="66232,91856 66232,90917 65378,90917 65378,85513 66232,85513 66232,84631 64231,84631 60960,90349 60960,85513 61842,85513 61842,84631 59054,84631 59054,85513 59907,85513 59907,90917 59044,90917 59044,91856 61007,91856 64354,86081 64354,90917 63463,90917 63463,91856 "/>
    <polygon class="fil1" points="70575,85513 72016,85513 72016,87428 72879,87428 72879,84631 67246,84631 67246,87428 68119,87428 68119,85513 69550,85513 69550,90917 68678,90917 68678,91856 71447,91856 71447,90917 70575,90917 "/>
    <polygon class="fil1" points="73903,91856 76671,91856 76671,90917 75780,90917 75780,88424 78919,88424 78919,90917 78037,90917 78037,91856 80815,91856 80815,90917 79962,90917 79962,85513 80815,85513 80815,84631 78037,84631 78037,85513 78919,85513 78919,87551 75780,87551 75780,85513 76671,85513 76671,84631 73903,84631 73903,85513 74756,85513 74756,90917 73903,90917 "/>
    <path class="fil1" d="M90316 91856l0 -939 -854 0 0 -5404 854 0 0 -882 -2740 0 0 882 853 0 0 5404 -853 0 0 939 2740 0zm-5907 -6343l0 -882 -2741 0 0 882 854 0 0 5404 -854 0 0 939 3158 0c654,0 1308,-76 1849,-606 408,-399 550,-854 550,-1423 0,-493 -104,-1147 -664,-1612 -436,-370 -1090,-531 -1650,-531l-1355 0 0 -2171 853 0 0 0zm-854 3082l1176 0c246,0 645,18 967,274 237,190 417,465 417,892 0,389 -151,664 -313,834 -313,303 -806,322 -1081,322l-1166 0 0 -2322z"/>
    <polygon class="fil1" points="96242,90917 93094,90917 93094,88575 95910,88575 95910,87713 93094,87713 93094,85513 96242,85513 96242,86774 97114,86774 97114,84631 91217,84631 91217,85513 92070,85513 92070,90917 91217,90917 91217,91856 97114,91856 97114,89543 96242,89543 "/>
    <path class="fil1" d="M44964 101727l0 -5376 863 0 0 -882 -2740 0 0 882 853 0 0 5376 -853 0 0 939 2740 0 0 -939 -863 0zm2446 -5377l-2446 2485 2380 2892 -711 0 0 939 2816 0 0 -939 -844 0 -2371 -2939 2333 -2437 740 0 0 -882 -2684 0 0 882 787 0 0 -1z"/>
    <path class="fil1" d="M49714 102666l3025 0c474,0 2484,-57 2484,-2039 0,-1005 -692,-1584 -1479,-1792 1043,-389 1081,-1242 1081,-1536 0,-1774 -1735,-1830 -2219,-1830l-2892 0 0 881 853 0 0 5377 -853 0 0 938 0 1zm1878 -4182l0 -2134 815 0c294,0 1394,39 1394,1100 0,1024 -1100,1034 -1451,1034l-758 0 0 0zm0 3281l0 -2437 843 0c323,0 1717,38 1717,1223 0,759 -579,1214 -1556,1214l-1004 0 0 0z"/>
    <path class="fil1" d="M55034 102666l2579 0 0 -939 -816 0 550 -1612 2428 0 559 1612 -872 0 0 939 2702 0 0 -939 -777 0 -1859 -5376 882 0 0 -882 -3603 0 0 882 938 0 -1877 5376 -834 0 0 939zm2626 -3423l910 -2674 892 2674 -1802 0z"/>
    <path class="fil1" d="M64307 101727l0 -1821 1014 0c1148,0 2760,-218 2760,-2237 0,-1005 -361,-2200 -2760,-2200l-2892 0 0 882 844 0 0 5376 -844 0 0 939 2731 0 0 -939 -854 0 1 0zm0 -2684l0 -2693 853 0c1508,0 1821,551 1821,1347 0,797 -313,1346 -1821,1346l-853 0z"/>
    <polygon class="fil1" points="71921,96350 73352,96350 73352,98257 74216,98257 74216,95469 68602,95469 68602,98257 69475,98257 69475,96350 70897,96350 70897,101727 70034,101727 70034,102666 72793,102666 72793,101727 71921,101727 "/>
    <polygon class="fil1" points="82000,102666 82000,101727 81147,101727 81147,96350 82000,96350 82000,95469 80009,95469 76738,101158 76738,96350 77620,96350 77620,95469 74841,95469 74841,96350 75695,96350 75695,101727 74832,101727 74832,102666 76795,102666 80123,96910 80123,101727 79241,101727 79241,102666 "/>
    <path class="fil1" d="M84333 101727l0 -1821 1014 0c1157,0 2760,-218 2760,-2237 0,-1005 -352,-2200 -2760,-2200l-2892 0 0 882 853 0 0 5376 -853 0 0 939 2740 0 0 -939 -863 0 1 0zm0 -2684l0 -2693 863 0c1498,0 1811,551 1811,1347 0,797 -313,1346 -1811,1346l-863 0z"/>
    <path class="fil1" d="M97105 102666l0 -939 -853 0 0 -5376 853 0 0 -882 -2731 0 0 882 854 0 0 5376 -854 0 0 939 2731 0zm-5888 -6316l0 -881 -2731 0 0 881 853 0 0 5377 -853 0 0 938 3138 0c655,0 1309,-75 1849,-607 408,-388 550,-843 550,-1412 0,-493 -104,-1147 -663,-1612 -437,-360 -1091,-531 -1641,-531l-1356 0 0 -2153 854 0 0 0zm-854 3073l1167 0c256,0 644,19 967,265 237,190 417,465 417,892 0,388 -142,663 -313,834 -313,294 -797,313 -1081,313l-1157 0 0 -2304z"/>
    <polygon class="fil1" points="66099,107188 66099,106307 63359,106307 63359,107188 64241,107188 62913,110441 61292,107188 62079,107188 62079,106307 59320,106307 59320,107188 60125,107188 62373,111654 62022,112565 60580,112565 60580,113503 62572,113503 65312,107188 "/>
    <path class="fil1" d="M70195 113503l0 -938 -853 0 0 -351 370 0c559,0 1432,-95 2048,-778 265,-303 550,-796 550,-1602 0,-929 -389,-1489 -787,-1811 -503,-389 -1261,-560 -1991,-560l-190 0 0 -275 796 0 0 -872 -2626 0 0 872 806 0 0 275 -190 0c-740,0 -1488,171 -1991,560 -408,322 -787,882 -787,1811 0,806 275,1299 550,1602 607,683 1479,778 2039,778l379 0 0 351 -853 0 0 938 2730 0 0 0zm-1877 -5196l0 3072 -180 0c-209,0 -712,-28 -1119,-294 -474,-322 -597,-786 -597,-1251 0,-304 47,-787 454,-1147 370,-332 892,-380 1280,-380l162 0zm1024 0l152 0c398,0 919,48 1289,380 408,360 455,843 455,1147 0,465 -123,929 -597,1251 -408,266 -920,294 -1119,294l-180 0 0 -3072z"/>
    <path class="fil1" d="M80995 113503l0 -938 -854 0 0 -5377 854 0 0 -881 -2731 0 0 881 854 0 0 5377 -854 0 0 938 2731 0zm-5888 -6315l0 -881 -2731 0 0 881 854 0 0 5377 -854 0 0 938 3139 0c654,0 1308,-76 1849,-607 407,-388 550,-843 550,-1412 0,-493 -105,-1147 -664,-1612 -436,-360 -1091,-531 -1640,-531l-1356 0 0 -2153 853 0 0 0zm-853 3072l1175 0c247,0 636,20 958,266 237,189 417,465 417,891 0,380 -142,664 -313,825 -313,304 -796,323 -1081,323l-1156 0 0 -2305z"/>
    <line class="fil2" x1="43200" y1="79786" x2="95180" y2= "79786" />
    <polygon class="fil1" points="43087,80194 97228,80194 97228,81018 43087,81018 "/>
   </g>
  </g>
  <rect class="fil3 str0" x="223" y="223" width="139887" height="139887"/>
 </g>
</svg>
