<?xml version="1.0" encoding="UTF-8"?>
<!DOCTYPE svg PUBLIC "-//W3C//DTD SVG 1.1//EN" "http://www.w3.org/Graphics/SVG/1.1/DTD/svg11.dtd">
<!-- Creator: CorelDRAW X7 -->
<svg xmlns="http://www.w3.org/2000/svg" xml:space="preserve" width="372px" height="372px" version="1.1" style="shape-rendering:geometricPrecision; text-rendering:geometricPrecision; image-rendering:optimizeQuality; fill-rule:evenodd; clip-rule:evenodd"
viewBox="0 0 13674 13674"
 xmlns:xlink="http://www.w3.org/1999/xlink">
 <defs>
  <style type="text/css">
   <![CDATA[
    .str0 {stroke:#EBECEC;stroke-width:43.3777}
    .fil4 {fill:none}
    .fil1 {fill:black}
    .fil0 {fill:#020202}
    .fil2 {fill:#727271}
    .fil3 {fill:#FEFEFE}
   ]]>
  </style>
 </defs>
 <g id="Слой_x0020_1">
  <metadata id="CorelCorpID_0Corel-Layer"/>
  <g id="_2419674476160">
   <path class="fil0" d="M5798 5856c2,122 32,310 94,418l44 79c25,48 68,105 102,147 10,14 22,21 32,32 12,14 17,22 30,34 82,75 116,101 217,158 157,90 325,129 508,129 129,0 247,-25 363,-72 109,-44 183,-93 273,-163 46,-34 146,-146 180,-195 15,-25 35,-48 49,-74l41 -84c61,-137 91,-251 91,-436 0,-37 -2,-82 -8,-114 -24,-134 -22,-126 -66,-248 -15,-41 -22,-46 -40,-81 -39,-79 -72,-124 -126,-190 -10,-13 -20,-20 -30,-31 -12,-14 -15,-22 -30,-34 -59,-52 -68,-60 -136,-111 -27,-20 -131,-77 -163,-89 -136,-54 -107,-42 -240,-72 -39,-10 -156,-13 -205,-13 -174,0 -336,55 -483,136 -145,78 -286,229 -369,374 -26,42 -42,80 -59,126 -24,62 -29,74 -44,144 -17,81 -25,128 -25,213l0 17 0 0z"/>
   <path class="fil1" d="M2844 8187c0,45 14,86 39,118 27,33 60,63 101,92 38,27 82,54 129,80 47,27 92,56 131,91 40,34 74,72 99,119 27,46 40,101 40,165 0,43 -8,85 -24,121 -15,38 -38,72 -65,97 -29,28 -62,50 -101,65 -38,15 -82,24 -126,24 -41,0 -77,-5 -107,-14 -30,-8 -55,-18 -75,-30 -22,-12 -42,-27 -58,-42 -8,17 -21,32 -36,47 -16,15 -31,24 -47,29l-26 0c2,-15 2,-32 4,-51 1,-15 1,-30 3,-47 2,-18 2,-35 2,-52 0,-18 0,-38 -2,-55 -2,-18 -2,-35 -3,-52 -2,-18 -2,-35 -4,-52l26 0c25,94 62,163 110,211 47,47 114,73 197,73 65,0 121,-22 161,-66 42,-42 64,-101 64,-176 0,-44 -14,-84 -41,-118 -25,-33 -58,-62 -99,-90 -38,-29 -82,-54 -131,-81 -45,-27 -90,-57 -129,-90 -40,-34 -74,-74 -101,-120 -25,-45 -38,-100 -38,-166 0,-37 7,-72 22,-105 13,-34 33,-62 58,-88 26,-25 56,-45 89,-60 36,-13 73,-20 111,-20 34,0 64,5 87,13 26,9 47,17 66,27 20,12 37,27 54,42 8,-17 21,-32 37,-47 15,-13 31,-22 48,-27l24 0c-2,15 -4,32 -5,49 -2,15 -2,32 -4,50 0,17 0,34 0,51 0,18 0,38 0,57 0,18 2,33 4,50 1,18 3,35 5,52l-24 0c-25,-92 -62,-163 -106,-210 -45,-48 -102,-74 -167,-74 -54,0 -99,19 -136,57 -37,41 -56,91 -56,153l0 0z"/>
   <path class="fil1" d="M3845 8795l-341 0 -82 282 107 42 0 16 -250 0 0 -16 107 -42 324 -1128 25 0 349 1144 100 26 0 16 -350 0 0 -16 99 -26 -88 -298 0 0zm-333 -32l322 0 -166 -549 -156 549z"/>
   <polygon class="fil1" points="4353,8536 4353,9092 4452,9117 4452,9134 4111,9134 4111,9117 4210,9092 4210,8013 4111,7987 4111,7971 4452,7971 4452,7987 4353,8013 4353,8503 4694,8503 4694,8013 4595,7987 4595,7971 4935,7971 4935,7987 4836,8013 4836,9092 4935,9117 4935,9134 4595,9134 4595,9117 4694,9092 4694,8536 "/>
   <path class="fil1" d="M5452 8795l-340 0 -83 282 108 42 0 16 -250 0 0 -16 107 -42 324 -1128 25 0 349 1144 99 26 0 16 -349 0 0 -16 99 -26 -89 -298 0 0zm-332 -32l322 0 -164 -549 -158 549 0 0z"/>
   <path class="fil1" d="M6028 7972c70,0 133,9 183,24 52,15 96,37 129,64 35,25 59,57 76,92 16,33 25,72 25,112 0,31 -5,61 -15,86 -10,25 -22,47 -36,65 -15,20 -33,37 -53,51 -20,13 -41,25 -59,33 -49,20 -102,34 -161,39 49,5 92,17 133,35 33,15 65,39 95,67 30,30 47,72 52,121l34 292c1,20 6,35 15,44 8,8 17,13 27,13 5,0 11,-2 18,-7 7,-3 12,-8 17,-15 5,-5 10,-13 15,-21l17 16c-7,15 -17,27 -29,39 -8,8 -21,17 -38,25 -17,9 -35,12 -59,12 -37,0 -67,-12 -92,-34 -24,-22 -39,-47 -41,-75l-33 -292c-5,-37 -12,-69 -22,-96 -10,-27 -24,-47 -42,-64 -15,-17 -39,-28 -65,-37 -27,-8 -57,-11 -96,-11l-67 0 0 538 100 26 0 16 -340 0 0 -16 99 -26 0 -1079 -99 -25 0 -17 312 0 0 5zm257 292c0,-84 -20,-147 -66,-191 -45,-44 -107,-65 -189,-65l-67 0 0 513 67 0c82,0 146,-20 189,-65 44,-47 66,-109 66,-192l0 0z"/>
   <path class="fil1" d="M7755 8417l0 12c-32,1 -57,8 -77,20 -20,12 -39,30 -54,55 -15,24 -30,57 -47,101 -18,47 -35,86 -49,114 -13,27 -25,49 -35,66 -8,16 -18,30 -27,43 4,4 20,15 47,44 30,27 56,50 76,69 45,38 82,63 109,75 25,12 52,17 77,19l0 10 -201 0c-76,-61 -130,-106 -166,-141 -26,33 -61,67 -113,104 -49,38 -109,55 -176,55 -37,0 -71,-5 -101,-17 -32,-13 -59,-30 -80,-55 -24,-23 -42,-49 -56,-79 -13,-30 -18,-60 -18,-90 0,-63 18,-116 57,-165 37,-47 82,-89 136,-126l-9 -8c-38,-44 -68,-84 -92,-121 -20,-35 -32,-76 -32,-114 0,-39 10,-77 30,-109 22,-35 51,-62 89,-84 36,-22 79,-30 123,-30 60,0 109,15 146,48 37,34 57,74 57,124 0,54 -22,103 -64,146 -42,42 -94,83 -153,120 21,23 56,62 104,109l94 97c36,37 69,71 98,96 23,-36 47,-86 74,-151 26,-64 40,-118 40,-158 0,-27 -7,-45 -22,-54 -13,-8 -32,-13 -52,-13l0 -12 267 0 0 0zm-678 136c-89,60 -134,131 -134,211 0,42 11,79 35,115 23,35 54,62 89,80 37,20 75,30 111,30 33,0 63,-6 89,-18 26,-12 50,-24 68,-39 19,-15 39,-32 56,-52 -35,-35 -66,-62 -84,-82 -20,-20 -40,-42 -62,-64 -22,-22 -46,-45 -69,-72 -22,-27 -57,-60 -99,-109l0 0zm59 -74c45,-30 82,-60 110,-92 27,-34 42,-72 42,-118 0,-28 -6,-55 -18,-80 -14,-24 -32,-46 -57,-62 -25,-17 -54,-24 -82,-24 -44,0 -78,14 -99,39 -24,25 -36,55 -36,90 0,24 7,52 22,81 14,32 30,62 52,89 22,27 44,54 66,77l0 0z"/>
   <polygon class="fil1" points="7874,7989 7874,7972 8223,7972 8223,7989 8124,8014 8389,8885 8623,8031 8515,7989 8515,7972 8765,7972 8765,7989 8658,8031 8351,9161 8326,9161 7977,8014 "/>
   <path class="fil1" d="M9413 8553c0,102 -12,190 -35,267 -24,75 -52,137 -89,188 -37,50 -79,87 -126,112 -45,25 -94,39 -141,39 -47,0 -94,-14 -139,-39 -47,-25 -87,-62 -126,-112 -37,-51 -67,-114 -89,-188 -24,-77 -35,-166 -35,-267 0,-102 11,-190 35,-265 23,-77 52,-139 89,-190 37,-48 79,-87 126,-112 45,-24 94,-37 139,-37 49,0 96,13 141,37 47,25 87,64 126,112 37,51 65,114 89,190 23,75 35,164 35,265zm-158 0c0,-114 -6,-208 -20,-282 -13,-75 -32,-134 -55,-180 -24,-43 -47,-75 -76,-92 -28,-18 -55,-27 -80,-27 -27,0 -54,9 -82,27 -27,19 -53,49 -76,92 -24,46 -42,105 -55,180 -12,74 -21,168 -21,282 0,114 7,208 21,284 13,73 31,132 55,178 24,43 49,75 76,92 28,18 55,27 82,27 25,0 52,-9 80,-27 29,-19 52,-49 76,-92 23,-46 42,-105 55,-178 14,-76 20,-170 20,-284z"/>
   <path class="fil1" d="M9551 8187c0,45 13,86 38,118 27,33 61,63 99,92 41,27 84,54 131,80 47,27 91,56 131,91 40,34 72,72 99,119 27,44 40,101 40,165 0,43 -8,85 -23,121 -15,38 -39,72 -65,97 -29,28 -63,50 -101,65 -39,15 -82,24 -126,24 -42,0 -79,-5 -107,-14 -31,-8 -56,-18 -76,-30 -22,-12 -42,-27 -57,-42 -8,17 -22,32 -37,47 -15,15 -32,24 -47,29l-25 0c2,-15 2,-32 3,-51 2,-15 2,-30 4,-47 1,-18 1,-35 1,-52 0,-18 0,-38 -1,-55 -2,-18 -2,-35 -4,-52 -1,-18 -1,-35 -3,-52l25 0c24,94 62,163 111,211 47,47 114,73 196,73 66,0 121,-22 161,-66 42,-42 64,-101 64,-176 0,-44 -13,-84 -40,-118 -27,-33 -59,-62 -99,-90 -41,-29 -82,-54 -131,-81 -45,-27 -91,-57 -131,-90 -39,-34 -72,-74 -99,-120 -25,-45 -39,-100 -39,-166 0,-37 7,-72 20,-105 16,-34 36,-62 61,-88 25,-25 54,-45 89,-60 35,-13 70,-20 111,-20 33,0 63,5 87,13 25,9 47,17 65,27 20,12 37,27 54,42 8,-17 22,-32 37,-47 15,-13 32,-22 47,-27l25 0c-2,15 -3,32 -5,49 -2,15 -2,32 -3,50 0,17 0,34 0,51 0,18 0,38 0,57 0,18 1,33 3,50 2,18 3,35 5,52l-25 0c-24,-92 -60,-163 -106,-210 -43,-48 -100,-74 -166,-74 -55,0 -99,19 -136,57 -37,41 -55,91 -55,153l0 0z"/>
   <polygon class="fil1" points="10341,8704 10341,9093 10442,9119 10442,9135 10101,9135 10101,9119 10200,9093 10200,8014 10101,7989 10101,7972 10442,7972 10442,7989 10341,8014 10341,8645 10699,8031 10591,7989 10591,7972 10841,7972 10841,7989 10734,8031 10522,8392 10856,9093 10955,9119 10955,9135 10598,9135 10598,9119 10697,9093 10437,8540 "/>
   <path class="fil2" d="M7636 5022c-222,-218 -514,-339 -824,-339 -312,0 -604,121 -826,339 -218,221 -339,515 -339,826 0,310 121,602 339,824 222,218 514,339 826,339 310,0 602,-121 824,-339 218,-222 339,-514 339,-824 2,-311 -119,-605 -339,-826zm-17 1633c-217,215 -502,332 -807,332 -306,0 -593,-117 -809,-332 -215,-217 -332,-502 -332,-807 0,-304 117,-593 332,-809 216,-215 502,-333 809,-333 304,0 590,118 807,333 215,216 332,503 332,809 0,303 -117,590 -332,807z"/>
   <path class="fil2" d="M7946 4713c25,-3 51,-3 76,0 8,-30 13,-59 15,-91 -30,4 -60,9 -91,17 4,25 4,49 0,74z"/>
   <path class="fil2" d="M7946 6980c4,26 4,51 0,76 31,8 61,15 91,17 -2,-32 -7,-62 -15,-93 -25,4 -51,4 -76,0l0 0z"/>
   <path class="fil2" d="M5677 6980c-25,4 -50,4 -74,0 -8,31 -15,61 -16,93 31,-4 60,-9 90,-17 -3,-25 -3,-50 0,-76l0 0z"/>
   <path class="fil2" d="M5677 4713c-3,-25 -3,-49 0,-74 -30,-8 -59,-15 -90,-17 3,32 8,61 16,91 24,-3 49,-5 74,0z"/>
   <path class="fil2" d="M7466 4493c-3,-22 -6,-42 -13,-64 -20,10 -39,22 -57,36 10,15 17,32 20,50 15,-10 32,-17 50,-22z"/>
   <path class="fil2" d="M5479 5242c-10,-15 -17,-31 -20,-49 -22,3 -44,7 -64,13 10,19 20,37 35,56 16,-9 32,-15 49,-20l0 0z"/>
   <path class="fil2" d="M6159 7200c3,22 7,44 13,66 19,-10 37,-22 56,-37 -10,-15 -17,-32 -20,-49 -16,10 -32,15 -49,20l0 0z"/>
   <path class="fil2" d="M8144 6452c10,15 17,32 20,50 22,-3 44,-7 66,-13 -10,-20 -22,-39 -37,-57 -15,8 -32,15 -49,20l0 0z"/>
   <path class="fil2" d="M8230 5208c-22,-7 -44,-12 -66,-13 -5,16 -11,33 -18,48 15,5 32,12 49,21 13,-19 25,-37 35,-56z"/>
   <path class="fil2" d="M6228 4465c-17,-12 -37,-26 -56,-36 -6,22 -11,42 -13,64 15,5 33,12 49,20 3,-16 11,-33 20,-48l0 0z"/>
   <path class="fil2" d="M5395 6487c20,7 42,12 64,13 5,-16 12,-35 20,-50 -17,-5 -33,-12 -50,-20 -14,18 -24,37 -34,57l0 0z"/>
   <path class="fil2" d="M7396 7229c17,13 37,27 57,37 7,-22 12,-44 13,-66 -17,-5 -35,-10 -50,-18 -5,15 -12,32 -20,47z"/>
   <path class="fil2" d="M8537 5853c-3,-2 -7,-4 -12,-5 4,-2 9,-4 12,-5 24,-14 42,-36 47,-63 7,-23 5,-50 -7,-70 -13,-20 -35,-34 -58,-34 0,0 -2,0 -2,0 -17,0 -32,14 -32,32 0,17 13,32 32,32 15,0 28,-12 30,-27 3,4 7,7 9,10 8,14 10,34 5,51 -5,20 -21,37 -37,47 -19,10 -41,13 -59,8 -29,-7 -50,-28 -72,-50 -5,-5 -9,-9 -14,-12 -8,-7 -15,-15 -23,-20 8,-20 12,-42 10,-64 0,-27 -12,-55 -34,-80 -11,-14 -25,-27 -42,-39 12,0 24,-2 36,-7 25,-1 48,-10 68,-25 29,-23 47,-60 47,-97 0,-19 -3,-37 -5,-57 0,-19 4,-39 19,-51 -24,4 -44,20 -54,41 -7,-9 -20,-12 -32,-9 -5,2 -10,4 -15,7 -3,-2 -5,-3 -8,-3 -36,-12 -78,1 -96,30 -2,1 -2,3 -2,5 -1,3 -1,7 -1,12 0,16 11,31 30,31 18,0 32,-13 32,-31 0,-9 -4,-17 -10,-24 13,-5 27,-5 40,0 23,8 40,32 44,57 3,27 -9,54 -29,72 -20,19 -49,27 -77,25 -17,-1 -32,-6 -49,-10 -2,0 -3,0 -5,0 -55,-20 -116,-25 -174,-13 -15,-57 -32,-111 -54,-165 7,2 12,2 18,2 12,0 22,-2 34,-7 35,-11 65,-36 79,-68 13,13 20,30 22,47 1,15 -4,30 -12,43 -5,-10 -15,-16 -29,-16 -16,0 -32,13 -32,31 0,17 14,32 32,32 4,0 5,0 9,-1 0,0 1,0 1,0 0,0 2,0 2,0 2,0 2,0 2,-2 32,-15 54,-52 50,-89 -3,-27 -18,-54 -38,-71 5,-28 -4,-57 -21,-78 -23,-29 -65,-41 -97,-27 -2,0 -2,0 -3,1 0,0 -2,0 -2,0 0,0 -2,0 -2,2 -1,2 -5,3 -6,5 -12,12 -12,32 0,45 11,12 32,12 43,0 9,-8 12,-21 7,-31 15,3 30,10 42,23 12,13 17,30 17,50 0,0 -2,0 -2,0 -32,-13 -72,-11 -104,5 -18,11 -34,22 -42,37 -25,-50 -50,-97 -82,-144 7,2 12,2 18,2 19,0 37,-7 52,-19 15,-12 26,-25 32,-43 0,0 0,1 0,1 2,4 7,5 12,4 15,-2 28,-19 25,-36 17,9 35,7 54,0 17,-6 32,-20 43,-35 -30,15 -70,9 -92,-15 -13,-13 -22,-33 -35,-47 -20,-23 -52,-33 -81,-37 -20,-2 -40,0 -58,4 -12,-2 -26,-2 -36,0 -1,0 -3,0 -5,0 2,-4 2,-7 4,-11 13,-43 43,-85 82,-114 20,-13 52,-32 91,-33 33,-2 65,13 83,35 9,12 14,24 16,35 0,12 -5,24 -14,30 3,-5 5,-10 5,-16 0,-17 -13,-32 -32,-32 -5,0 -8,1 -13,3 -2,0 -3,2 -5,4 -9,6 -12,16 -12,28 0,12 5,24 14,32 13,12 38,13 57,2 15,-12 25,-31 23,-52 0,-22 -12,-39 -20,-51 -24,-28 -62,-45 -104,-43 -30,1 -59,10 -87,28 18,-28 28,-60 28,-89 2,-40 -15,-80 -45,-104 -10,-8 -29,-17 -51,-18 -20,0 -38,8 -50,21 -12,19 -12,44 2,59 7,9 18,14 32,14 0,0 0,0 0,0 10,0 20,-5 27,-12 1,-2 1,-3 3,-5 2,-5 3,-9 3,-15 0,-17 -13,-32 -30,-32 -7,0 -12,2 -17,5 7,-9 19,-14 29,-14 12,0 23,6 35,16 24,18 37,52 37,83 -2,39 -20,73 -35,93 -29,37 -69,67 -114,82 -4,2 -7,2 -10,3 0,-1 0,-3 0,-5 0,-13 0,-25 0,-37 3,-20 5,-37 3,-57 -2,-30 -14,-62 -35,-80 -15,-14 -34,-22 -47,-35 -26,-24 -32,-64 -17,-93 -15,12 -29,25 -35,42 -7,17 -9,39 0,56 -14,-4 -32,8 -34,25 0,5 0,8 3,10 0,0 2,0 2,0 -18,7 -33,18 -45,32 -17,22 -22,48 -17,72 -45,-32 -94,-59 -143,-84 14,-8 27,-24 36,-40 16,-34 18,-74 5,-104 0,0 0,-2 0,-2 18,0 37,5 52,15 11,10 20,25 21,42 -10,-3 -21,-2 -30,7 -11,11 -11,32 0,45 12,12 30,12 44,0 2,-2 3,-5 5,-7 0,0 0,-1 2,-1 0,0 0,-2 0,-2 0,0 0,-2 1,-3 14,-34 2,-76 -25,-99 -22,-19 -52,-26 -80,-21 -17,-23 -42,-38 -69,-40 -39,-3 -74,19 -89,52 0,0 0,2 -2,2 0,0 0,2 0,2 0,0 0,1 0,1 0,4 -2,5 -2,9 0,15 14,30 31,30 16,0 32,-14 32,-30 0,-12 -7,-24 -17,-29 13,-10 28,-15 45,-13 17,1 34,10 45,23 -30,14 -57,42 -68,77 -7,19 -9,39 -5,54 -52,-22 -108,-40 -163,-55 12,-57 7,-118 -14,-173 0,-2 0,-4 0,-5 -5,-17 -10,-34 -10,-51 -1,-28 7,-55 25,-75 17,-22 44,-32 71,-30 27,3 50,22 57,45 5,13 3,25 0,39 -5,-7 -12,-10 -22,-10 -17,0 -32,13 -32,31 0,19 14,32 32,32 4,0 9,0 12,-1 2,0 3,-2 5,-2 29,-20 40,-62 29,-96 -2,-3 -2,-6 -4,-8 4,-5 5,-12 7,-17 2,-12 0,-23 -9,-32 22,-10 37,-28 42,-52 -13,14 -33,19 -52,19 -16,0 -35,-5 -55,-5 -37,0 -74,18 -97,45 -15,20 -26,44 -27,69 -4,12 -5,22 -7,35 -12,-17 -25,-28 -38,-40 -24,-20 -53,-32 -81,-36 -22,-1 -42,2 -62,12 -7,-8 -14,-17 -20,-25 -5,-5 -9,-10 -14,-13 -22,-24 -43,-44 -48,-71 -5,-20 -2,-42 6,-60 10,-17 27,-30 47,-36 19,-5 37,-3 52,6 4,1 5,5 9,8 -14,2 -25,13 -25,28 0,17 13,32 30,32 17,0 32,-13 32,-32 0,0 0,-1 0,-1 0,-22 -12,-44 -34,-57 -18,-12 -45,-15 -70,-9 -26,9 -47,25 -61,49 -2,2 -3,5 -5,10 -2,-3 -3,-8 -5,-10 -13,-24 -35,-42 -62,-49 -25,-6 -50,-5 -70,9 -21,13 -34,35 -34,57 0,0 0,1 0,1 0,17 13,32 32,32 17,0 32,-13 32,-32 0,-15 -12,-26 -27,-28 3,-3 7,-7 10,-8 13,-9 32,-10 50,-6 20,6 37,21 47,36 10,18 14,40 9,60 -7,29 -29,49 -51,71 -5,5 -8,8 -13,13 -7,8 -14,17 -19,25 -20,-8 -42,-13 -63,-12 -29,2 -56,14 -81,36 -13,12 -27,23 -38,40 0,-12 -4,-24 -7,-35 -2,-25 -12,-49 -25,-69 -24,-27 -61,-45 -99,-45 -17,0 -36,3 -56,5 -18,0 -38,-4 -52,-19 5,24 22,42 42,52 -8,7 -12,20 -8,32 1,7 3,12 6,17 -1,3 -3,5 -3,8 -12,34 2,76 30,96 2,2 4,2 5,2 4,1 7,1 12,1 17,0 30,-13 30,-32 0,-18 -11,-31 -30,-31 -8,0 -17,3 -23,10 -5,-14 -5,-26 0,-39 8,-23 31,-42 57,-45 27,-4 53,8 72,30 18,20 25,47 25,75 -2,17 -7,34 -10,51 0,1 0,3 0,5 -20,54 -25,116 -14,173 -57,15 -110,33 -164,55 3,-17 2,-35 -5,-54 -12,-35 -37,-63 -69,-77 14,-13 30,-22 45,-23 17,-2 32,3 46,13 -10,5 -17,15 -17,29 0,15 13,30 32,30 17,0 32,-14 32,-30 0,-4 0,-5 -2,-9 0,0 0,-1 0,-1 0,0 0,-2 0,-2 0,-2 0,-2 -2,-2 -15,-33 -52,-55 -90,-52 -25,3 -52,19 -69,40 -29,-5 -57,4 -79,21 -28,21 -40,63 -27,99 0,0 0,1 2,1 0,0 0,2 0,2 0,0 0,2 2,2 1,1 3,5 5,6 11,12 32,12 45,0 10,-11 10,-32 0,-45 -8,-8 -22,-12 -32,-7 3,-15 10,-30 24,-42 13,-10 30,-15 50,-15 0,0 0,2 0,2 -13,30 -12,70 5,104 10,18 22,32 37,40 -50,25 -97,52 -144,84 5,-23 0,-52 -17,-72 -12,-15 -25,-25 -44,-32 0,0 2,0 2,0 3,-2 5,-5 3,-10 -1,-15 -18,-28 -35,-25 8,-17 7,-37 0,-55 -7,-17 -20,-31 -35,-42 15,28 8,68 -17,92 -12,13 -32,22 -45,35 -24,19 -34,50 -37,81 -2,20 0,38 3,57 -2,12 -2,25 0,37 0,1 0,3 0,5 -3,-2 -7,-2 -10,-4 -44,-15 -86,-45 -114,-82 -15,-20 -32,-54 -34,-90 -1,-34 12,-68 36,-86 11,-8 23,-14 35,-15 12,0 23,5 30,13 -5,-3 -10,-5 -17,-5 -17,0 -32,14 -32,32 0,5 2,10 4,15 0,2 1,4 3,5 7,9 19,12 29,12 11,0 23,-5 30,-13 12,-16 13,-41 0,-59 -10,-14 -29,-24 -51,-22 -21,0 -38,12 -50,18 -28,24 -45,64 -44,105 2,30 11,60 29,88 -29,-18 -60,-28 -89,-28 -40,-2 -81,15 -104,45 -8,9 -18,27 -18,49 0,20 6,40 21,52 19,10 44,10 59,-2 8,-6 14,-18 14,-32 0,-11 -6,-21 -12,-28 -2,-2 -4,-2 -5,-3 -5,-2 -9,-4 -15,-4 -17,0 -32,14 -32,32 0,7 1,12 5,17 -9,-7 -14,-19 -14,-30 0,-12 5,-24 15,-36 19,-21 52,-35 84,-35 39,2 73,20 93,34 37,28 67,70 82,114 2,3 2,7 3,10 -1,0 -3,0 -5,0 -12,0 -25,0 -37,0 -20,-3 -37,-5 -57,-3 -30,1 -62,13 -82,36 -12,16 -20,34 -34,47 -23,24 -63,31 -92,16 12,15 25,28 42,35 17,6 39,8 55,0 -3,15 9,33 24,35 5,0 10,0 12,-3 0,0 0,-2 0,-2 6,18 18,34 32,44 15,11 35,18 53,18 7,0 12,-2 17,-2 -30,47 -57,94 -82,145 -9,-15 -24,-29 -40,-37 -34,-17 -74,-19 -104,-5 0,0 -2,0 -2,0 0,-19 5,-35 15,-51 10,-11 25,-20 42,-23 -3,12 -2,23 7,32 11,12 32,12 45,0 10,-12 10,-32 0,-46 -2,-1 -5,-3 -7,-5 0,0 -1,0 -1,-1 0,0 -2,0 -2,0 0,0 -2,0 -3,-2 -34,-13 -76,-2 -100,27 -18,22 -25,50 -20,79 -23,17 -38,43 -40,70 -3,36 19,74 52,89 0,0 2,2 2,2 0,0 1,0 1,0 0,0 2,0 2,0 4,0 5,2 9,2 15,0 30,-14 30,-32 0,-17 -14,-32 -30,-32 -12,0 -24,7 -29,17 -10,-14 -15,-29 -13,-44 1,-17 10,-34 23,-47 14,32 42,57 77,69 12,3 24,7 36,7 6,0 13,-2 18,-2 -22,54 -42,107 -55,164 -57,-11 -118,-6 -173,14 -2,0 -4,0 -5,0 -17,5 -34,10 -51,10 -28,2 -55,-7 -75,-25 -22,-19 -32,-46 -30,-71 3,-27 21,-50 45,-59 13,-5 25,-3 39,0 -7,5 -11,14 -11,24 0,17 14,32 32,32 19,0 32,-14 32,-32 0,-3 0,-9 -1,-12 0,-2 -2,-3 -2,-5 -20,-30 -62,-42 -96,-30 -3,2 -6,2 -8,3 -5,-3 -12,-5 -17,-6 -12,-2 -23,0 -32,8 -10,-22 -30,-35 -52,-40 14,11 19,32 19,50 0,18 -5,37 -5,57 0,35 16,74 45,97 20,17 45,24 70,26 10,3 22,5 34,6 -17,12 -30,25 -40,39 -20,25 -32,54 -36,80 -1,22 2,44 12,64 -8,7 -17,14 -25,20 -5,4 -10,7 -13,12 -24,22 -44,44 -71,50 -20,5 -42,2 -60,-8 -17,-10 -31,-27 -36,-47 -5,-17 -3,-35 5,-50 2,-4 6,-7 9,-10 2,15 13,26 28,26 17,0 32,-13 32,-31 0,-17 -13,-32 -32,-32 0,0 -1,0 -1,0 -22,0 -44,11 -57,33 -12,20 -15,47 -9,71 9,25 25,48 47,62 4,2 7,3 12,5 -3,2 -8,3 -12,5 -22,13 -40,34 -47,60 -6,26 -5,52 9,73 13,18 35,31 55,31 0,0 2,0 2,0 0,0 1,0 1,0 17,0 32,-13 32,-30 0,-17 -13,-32 -32,-32 -15,0 -26,12 -28,27 -3,-3 -7,-7 -8,-10 -9,-13 -11,-33 -6,-52 6,-20 21,-37 36,-45 18,-10 40,-14 60,-9 29,7 49,27 71,49 5,5 8,8 13,13 8,7 17,16 25,21 -8,20 -13,40 -12,62 2,28 14,57 36,82 10,12 23,25 40,37 -12,0 -25,3 -35,7 -25,1 -49,11 -69,26 -29,24 -45,59 -45,98 0,18 3,37 5,57 0,17 -4,37 -19,50 24,-5 42,-22 52,-42 7,9 20,12 32,9 7,-2 12,-4 17,-7 3,2 5,3 8,3 9,4 19,5 27,5 25,0 54,-13 69,-33 2,-2 2,-4 2,-5 1,-4 1,-7 1,-12 0,-17 -13,-32 -32,-32 -18,0 -31,13 -31,32 0,8 3,17 10,23 -14,5 -26,5 -39,0 -24,-8 -42,-31 -45,-58 -4,-27 8,-52 30,-71 20,-18 47,-27 75,-25 17,2 34,7 51,10 1,0 3,0 3,0 34,14 72,20 111,20 20,0 42,-3 62,-6 15,55 34,110 55,162 -16,-3 -35,-1 -53,5 -36,12 -64,39 -78,71 -13,-14 -21,-30 -23,-47 -2,-17 3,-32 13,-45 5,10 15,16 29,16 15,0 30,-13 30,-30 0,-17 -13,-32 -30,-32 -3,0 -5,0 -8,2 0,0 -2,0 -2,0 0,0 -2,0 -2,0 -2,0 -2,0 -2,2 -33,15 -55,50 -52,89 4,26 19,53 41,68 -5,29 3,59 20,81 15,20 42,32 69,32 8,0 18,-2 27,-5 1,0 3,-2 5,-2 0,0 1,0 1,0 0,0 2,0 2,-2 2,-1 5,-3 7,-5 11,-10 11,-30 0,-43 -12,-12 -32,-12 -46,0 -8,8 -11,22 -6,32 -15,-4 -31,-10 -42,-24 -10,-13 -15,-32 -15,-52 0,0 1,0 1,0 12,5 29,8 44,8 20,0 42,-5 60,-15 17,-10 32,-20 41,-35 25,49 52,97 82,143 -22,-5 -51,0 -71,17 -15,11 -25,26 -32,45 0,0 0,-2 0,-2 -1,-3 -5,-5 -10,-3 -15,1 -28,18 -25,35 -17,-8 -37,-7 -55,0 -17,5 -30,19 -42,34 28,-15 69,-9 92,16 14,14 22,34 35,47 19,22 51,32 81,36 20,1 37,0 57,-4 7,0 13,2 22,2 5,0 10,0 15,0 3,0 5,0 8,2 -1,3 -1,6 -3,10 -15,45 -45,85 -82,114 -20,15 -54,33 -93,35 -31,2 -65,-13 -83,-37 -9,-12 -14,-23 -16,-33 0,-12 5,-24 14,-31 -4,5 -5,10 -5,17 0,17 13,30 32,30 5,0 10,-1 15,-3 1,0 3,-2 5,-3 8,-7 12,-15 12,-27 0,-12 -5,-24 -14,-32 -15,-14 -40,-15 -59,-2 -15,12 -23,30 -21,52 0,20 10,37 18,49 24,28 60,45 99,45 2,0 3,0 5,0 30,-1 61,-10 89,-28 -18,28 -28,58 -28,87 -2,42 15,81 43,104 10,8 29,18 51,20 0,0 1,0 1,0 20,0 39,-8 49,-23 10,-19 10,-42 -2,-57 -6,-9 -18,-14 -32,-14 -3,0 -6,0 -10,2 -5,0 -8,2 -12,5 -3,2 -5,3 -8,7 -2,1 -2,3 -3,5 -2,5 -4,8 -4,15 0,15 14,30 32,30 7,0 12,-2 17,-5 -7,8 -18,13 -30,13 -12,0 -24,-5 -35,-15 -22,-18 -36,-50 -36,-84 2,-38 19,-70 34,-90 28,-39 70,-67 114,-83 3,-1 7,-1 10,-3 0,2 0,3 0,5 0,12 0,24 0,35 -3,21 -5,39 -3,59 1,30 13,61 37,81 15,13 33,22 45,35 25,23 32,62 17,92 15,-11 28,-27 35,-43 7,-17 8,-37 0,-54 15,3 34,-8 35,-25 0,-5 0,-10 -3,-12 0,0 -2,0 -2,0 19,-7 32,-18 44,-32 17,-20 22,-47 17,-70 47,31 94,58 144,82 -15,8 -29,23 -37,42 -17,33 -18,72 -5,104 0,0 0,2 0,2 -18,0 -35,-6 -50,-17 -12,-10 -20,-25 -24,-42 12,3 24,2 32,-5 12,-12 12,-32 0,-46 -12,-11 -32,-11 -45,0 -2,2 -4,5 -5,7 0,0 0,2 -2,2 0,0 0,2 0,2 0,0 0,1 -2,1 -13,34 -1,74 27,99 19,15 40,22 62,22 5,0 12,0 17,-2 17,24 44,37 71,39 3,0 3,0 6,0 35,0 69,-20 82,-50 0,0 0,-2 2,-2 0,0 0,-2 0,-2 0,0 0,-1 0,-1 0,-4 2,-5 2,-9 0,-17 -14,-32 -32,-32 -17,0 -32,14 -32,32 0,12 7,24 17,29 -14,10 -29,15 -44,13 -17,-2 -33,-10 -47,-23 32,-14 57,-44 69,-79 7,-17 8,-37 5,-52 54,22 107,40 165,53 -12,59 -7,118 13,175 0,2 0,3 0,5 5,17 10,34 10,49 2,28 -7,57 -25,77 -19,22 -45,30 -72,28 -25,-3 -49,-20 -57,-43 -5,-14 -4,-27 0,-41 5,7 13,11 23,11 17,0 30,-14 30,-32 0,-17 -11,-31 -30,-31 -3,0 -8,0 -12,2 -1,0 -3,2 -5,2 -30,18 -42,60 -30,95 2,4 2,7 3,9 -3,5 -5,12 -6,17 -2,10 0,21 8,30 -22,10 -37,30 -40,54 12,-14 32,-19 50,-19 19,0 37,5 57,5 36,0 74,-18 98,-47 15,-18 23,-42 25,-67 3,-12 5,-23 7,-37 11,17 25,30 38,42 25,20 54,32 81,35 3,0 6,0 10,0 18,0 37,-3 53,-11 7,8 14,16 19,21 5,5 8,10 13,14 22,23 44,45 51,72 5,20 1,40 -9,59 -10,18 -27,32 -47,37 -16,5 -35,3 -50,-5 -3,-2 -7,-5 -10,-9 15,-2 27,-15 27,-30 0,-17 -14,-30 -32,-30 -17,0 -32,11 -32,30 0,0 0,2 0,2 0,23 12,45 34,58 13,9 28,12 43,12 9,0 17,-2 25,-3 26,-9 49,-25 62,-49 2,-3 4,-7 5,-12 2,4 4,9 6,12 13,24 33,42 60,49 25,6 52,5 72,-9 19,-13 32,-35 32,-58 0,0 0,-2 0,-2 0,-17 -13,-30 -32,-30 -15,0 -30,11 -30,30 0,15 12,28 27,30 -4,4 -7,7 -10,9 -14,8 -34,10 -52,5 -20,-5 -37,-21 -46,-37 -10,-19 -13,-39 -8,-59 7,-29 27,-50 49,-72 5,-5 8,-9 13,-14 7,-6 15,-15 20,-21 17,8 35,11 52,11 4,0 7,0 10,0 29,-1 57,-13 83,-35 11,-12 25,-25 36,-42 0,12 4,25 7,37 2,25 12,49 27,67 24,29 59,47 97,47 19,0 37,-3 56,-5 18,0 38,3 52,19 -5,-24 -22,-44 -42,-54 8,-7 12,-20 8,-30 -1,-7 -3,-12 -7,-17 2,-3 4,-5 4,-9 12,-35 -2,-77 -29,-95 -1,-2 -3,-2 -5,-2 -3,-2 -6,-2 -11,-2 -17,0 -32,14 -32,31 0,18 13,32 32,32 8,0 16,-4 23,-11 5,14 5,27 0,41 -8,23 -32,40 -59,43 -27,4 -52,-6 -70,-28 -19,-20 -27,-49 -25,-77 1,-15 6,-32 10,-49 0,-2 0,-3 0,-5 20,-55 25,-116 13,-175 55,-13 111,-31 163,-53 -3,16 -2,35 5,52 12,35 39,65 70,79 -13,13 -30,21 -47,23 -16,2 -31,-3 -45,-13 10,-5 17,-15 17,-29 0,-17 -14,-32 -30,-32 -17,0 -32,14 -32,32 0,4 0,5 1,9 0,0 0,1 0,1 0,0 0,2 0,2 0,0 0,2 2,2 14,30 45,50 81,50 3,0 5,0 8,0 27,-3 54,-17 69,-39 5,2 12,2 17,2 23,0 47,-8 63,-22 27,-23 39,-64 26,-99 0,-1 0,-1 -2,-3 0,0 0,-2 0,-2 0,0 0,-2 -2,-2 -1,-1 -3,-5 -5,-6 -10,-12 -30,-12 -43,0 -12,12 -12,32 0,45 8,7 21,10 31,5 -3,15 -10,30 -23,42 -13,12 -32,17 -52,17 0,0 0,-2 0,-2 13,-32 12,-70 -5,-104 -10,-18 -20,-33 -35,-42 48,-23 97,-50 142,-82 -5,23 0,52 17,70 12,16 27,26 45,32 0,0 -1,0 -1,0 -4,2 -5,7 -4,12 2,15 19,29 36,25 -9,17 -7,36 0,54 5,17 18,32 33,44 -15,-31 -8,-69 17,-93 13,-13 34,-22 47,-35 22,-20 32,-50 35,-81 2,-20 0,-40 -3,-58 2,-12 2,-24 0,-35 0,-2 0,-4 0,-6 3,2 7,2 10,4 45,15 85,43 114,82 15,20 34,52 35,91 2,33 -13,65 -37,84 -11,8 -23,13 -33,15 -12,0 -24,-5 -30,-14 5,4 10,5 16,5 17,0 31,-13 31,-30 0,-5 -2,-10 -4,-15 0,-2 -1,-3 -3,-5 -4,-3 -7,-7 -10,-8 0,0 -2,0 -2,-2 0,0 -2,0 -2,0 -1,0 -3,-2 -5,-2 -3,0 -6,-2 -10,-2 -11,0 -23,6 -32,14 -13,15 -15,38 -1,57 10,15 28,23 48,23 0,0 2,0 2,0 20,0 37,-11 49,-20 30,-23 47,-62 45,-104 -2,-30 -10,-58 -28,-87 28,18 58,29 87,29 2,0 3,0 5,0 40,0 75,-17 99,-46 8,-10 18,-28 20,-48 0,-21 -8,-41 -23,-52 -19,-12 -42,-12 -58,1 -8,7 -13,19 -13,32 0,12 5,22 12,27 1,2 3,2 5,3 5,2 8,4 15,4 15,0 30,-12 30,-31 0,-6 -2,-11 -5,-16 9,6 14,18 14,30 0,10 -5,22 -16,33 -18,24 -50,37 -83,37 -39,-1 -71,-20 -91,-35 -39,-28 -67,-69 -82,-114 -2,-3 -2,-7 -4,-10 4,0 5,0 9,-2 5,0 10,0 15,0 5,0 12,0 20,-1 20,3 39,5 59,3 30,-2 60,-14 80,-35 14,-15 22,-34 35,-47 24,-25 63,-32 93,-17 -12,-15 -27,-29 -44,-34 -17,-6 -37,-8 -54,0 4,-15 -8,-33 -25,-35 -5,0 -10,0 -11,3 0,0 0,2 0,2 -7,-18 -19,-33 -32,-45 -20,-17 -47,-22 -71,-17 32,-45 59,-94 82,-143 9,16 24,27 42,36 19,10 41,15 59,15 15,0 32,-4 45,-9 0,0 2,0 2,0 0,19 -5,37 -17,52 -10,12 -25,21 -42,24 4,-12 2,-24 -5,-32 -11,-12 -32,-12 -45,0 -12,12 -12,32 0,44 2,1 5,3 7,5 0,0 1,0 1,1 0,0 2,0 2,0 2,0 3,2 5,2 9,3 17,5 27,5 25,0 52,-12 69,-32 18,-22 25,-52 20,-80 23,-15 37,-42 39,-69 3,-37 -17,-74 -51,-89 0,0 -2,-2 -2,-2 0,0 -1,0 -1,0 0,0 -2,0 -2,0 -3,0 -5,-2 -8,-2 -17,0 -32,14 -32,32 0,16 13,31 32,31 11,0 23,-7 28,-17 10,13 15,28 14,45 -2,17 -10,34 -24,47 -13,-32 -43,-59 -77,-70 -19,-7 -39,-9 -54,-5 22,-52 41,-108 54,-163 22,5 42,7 64,7 38,0 75,-7 111,-21 1,0 3,0 3,0 17,-5 33,-10 49,-10 28,-1 57,7 77,26 22,18 30,43 28,70 -3,27 -20,50 -43,59 -14,5 -27,3 -41,0 7,-5 10,-14 10,-24 0,-17 -13,-32 -31,-32 -17,0 -31,14 -31,32 0,4 0,9 2,12 0,2 2,3 2,5 15,20 40,34 69,34 8,0 18,-2 26,-5 4,-2 7,-2 9,-4 5,4 11,5 17,7 10,2 21,0 30,-8 10,21 30,36 53,41 -13,-13 -18,-33 -18,-50 0,-18 5,-37 5,-57 0,-37 -18,-74 -47,-97 -18,-15 -42,-25 -67,-27 -12,-3 -24,-5 -37,-7 17,-12 30,-25 42,-37 20,-25 32,-53 35,-82 2,-20 -2,-42 -12,-62 9,-7 17,-13 26,-20 3,-5 8,-9 11,-14 24,-21 46,-42 72,-48 21,-5 41,-2 59,8 19,8 32,25 37,45 5,19 4,37 -5,52 -2,4 -5,7 -8,10 -2,-15 -15,-26 -31,-26 -16,0 -30,13 -30,32 0,15 12,30 30,30 0,0 2,0 2,0 0,0 2,0 2,0 22,0 45,-12 57,-32 12,-20 15,-47 8,-72 0,-22 -16,-44 -40,-57l0 0zm-282 -284c24,13 44,30 59,49 17,20 27,43 28,67 2,17 -1,32 -6,47 -22,-14 -42,-24 -64,-30 -44,-14 -91,-7 -126,18 -13,10 -25,25 -35,40 -20,-28 -25,-63 -14,-94 9,-23 31,-42 52,-50 0,0 0,2 0,2 0,16 14,32 32,32 17,0 32,-14 32,-32 0,-15 -12,-29 -25,-31 0,0 -2,0 -2,0 -1,0 -1,0 -3,0 0,0 0,0 -2,0 0,0 -1,0 -1,0 -41,-1 -81,26 -101,64 -5,-37 -14,-74 -22,-109 67,-17 139,-5 198,27l0 0zm71 185c-5,6 -10,13 -16,16 -21,24 -53,37 -87,39 -37,2 -70,-10 -94,-32 9,-13 19,-27 34,-37 28,-20 67,-25 104,-13 20,5 38,13 59,27zm-616 978c-2,2 -2,3 -4,5 0,0 -1,2 -1,2 0,0 -2,1 -2,1 -2,2 -3,4 -5,5 -238,232 -552,360 -885,360 -334,0 -646,-128 -884,-360 -2,-1 -3,-3 -5,-5 0,0 -2,-1 -2,-1 0,0 -2,-2 -2,-2 -1,-2 -3,-3 -5,-5 -233,-238 -360,-552 -360,-884 0,-334 127,-647 360,-885 2,-2 4,-3 5,-5 0,0 2,-2 2,-2 0,0 2,-1 2,-1 2,-2 3,-4 5,-5 238,-234 552,-361 884,-361 334,0 647,127 885,361 2,1 3,3 5,5 0,0 2,1 2,1 0,0 1,2 1,2 2,2 2,3 4,5 233,238 360,552 360,885 0,332 -127,646 -360,884zm-7 40c3,14 8,29 10,44 -18,-2 -39,-2 -59,2 17,-15 34,-31 49,-46zm79 -82c-4,20 -4,42 -2,60 -15,-3 -30,-6 -44,-11 17,-17 32,-32 46,-49l0 0zm-861 507c18,28 23,67 13,106 -5,18 -15,37 -28,57 -7,-5 -14,-10 -19,-15 -23,-22 -37,-54 -38,-88 -2,-37 10,-68 32,-94 16,10 30,22 40,34zm-180 -32c22,25 34,59 32,94 -2,34 -17,64 -38,87 -6,5 -12,10 -17,15 -14,-20 -22,-38 -29,-58 -10,-37 -5,-78 14,-104 11,-14 23,-26 38,-34zm-772 -347c-18,-4 -40,-4 -58,-2 3,-15 6,-30 11,-44 15,15 30,31 47,46zm-84 -79c-13,5 -28,10 -42,11 0,-20 0,-40 -3,-60 15,17 30,32 45,49l0 0zm37 -1818c-5,-13 -10,-28 -12,-42 9,2 19,2 27,2 12,0 22,-2 34,-3 -19,13 -34,28 -49,43l0 0zm-79 82c2,-18 2,-40 0,-58 15,3 31,6 44,11 -17,17 -32,32 -44,47zm861 -506c-20,-29 -25,-66 -13,-104 5,-21 15,-39 27,-58 6,6 13,9 18,14 24,22 37,55 39,89 2,35 -10,69 -32,94 -17,-10 -29,-22 -39,-35l0 0zm177 33c-22,-25 -34,-60 -32,-94 1,-33 16,-65 38,-89 5,-5 12,-8 19,-13 13,18 22,37 28,57 9,38 5,77 -13,104 -10,15 -24,27 -40,35l0 0zm773 348c12,1 24,3 35,3 9,0 19,0 26,-2 -4,14 -7,29 -10,42 -17,-15 -34,-30 -51,-43l0 0zm84 78c14,-5 29,-10 44,-11 -2,20 -2,40 1,58 -15,-15 -30,-30 -45,-47zm240 353c3,-17 17,-34 39,-44 27,-13 58,-15 84,-5 1,2 3,2 6,4 0,1 -1,3 -1,5 -10,25 -36,47 -64,57 -20,6 -42,5 -57,-4 0,0 -2,0 -2,-1 -2,-4 -3,-7 -5,-12 0,2 0,0 0,0l0 0zm-40 -207c-19,14 -45,17 -64,7 -22,-13 -30,-44 -18,-65 5,-9 11,-15 20,-19 -4,5 -5,12 -5,17 0,17 13,32 32,32 3,0 5,0 8,-2 5,0 10,-3 13,-5 4,-5 7,-12 9,-20 2,-12 -2,-22 -9,-32 -8,-10 -21,-15 -35,-15 -22,-2 -43,12 -55,34 -5,8 -7,18 -7,28 -3,-5 -8,-10 -10,-15 0,0 0,0 0,0 -12,-35 -15,-69 -10,-104 23,-2 47,-2 72,2 30,5 50,15 66,30 15,15 25,37 23,62 0,25 -12,50 -30,65zm-176 -233c20,-7 38,-15 55,-27 -10,19 -18,37 -25,56 -2,6 -3,13 -5,21 -22,4 -44,11 -64,19 8,-20 13,-42 19,-62 5,-4 11,-5 20,-7zm-101 -97c0,-14 -7,-25 -17,-35 -10,-9 -20,-12 -32,-11 -8,2 -13,6 -18,11 -4,3 -5,8 -7,13 0,3 -2,5 -2,8 0,17 14,31 31,31 6,0 11,-2 16,-5 -3,8 -10,15 -18,20 -20,11 -50,3 -64,-19 -12,-17 -8,-45 7,-64 15,-18 38,-30 64,-30 25,0 48,9 63,24 16,15 24,37 29,67 3,22 5,47 2,72 -32,5 -69,2 -104,-10 0,0 0,0 0,0 -5,-3 -10,-8 -14,-12 9,0 19,-3 27,-6 25,-12 39,-34 37,-54l0 0zm-322 -99c-10,-12 -12,-34 -4,-57 10,-31 32,-54 56,-62 1,0 3,-2 5,-2 1,2 1,3 3,7 10,25 9,57 -5,84 -10,21 -25,33 -42,36 0,0 0,0 -2,0 -3,-1 -6,-3 -10,-5 0,0 -1,0 -1,-1l0 0zm-364 -356c23,2 47,12 68,27 17,15 34,35 47,60 34,59 44,131 31,197 -37,-9 -73,-17 -110,-22 37,-19 64,-59 63,-101 0,0 0,-2 0,-2 0,0 0,0 0,-1 0,-2 0,-2 0,-4 0,0 0,-1 0,-1 -4,-15 -16,-24 -29,-24 -17,0 -32,12 -32,30 0,17 14,32 32,32 0,0 2,0 2,0 -9,24 -27,44 -52,52 -31,12 -66,5 -93,-11 15,-11 29,-22 39,-37 23,-34 30,-79 18,-126 -6,-22 -15,-42 -28,-62 12,-7 27,-9 44,-7l0 0zm-227 -22c3,-5 8,-8 13,-13 20,-20 41,-42 52,-67 12,25 31,47 51,67 5,5 8,8 13,13 7,7 12,14 17,20 -7,5 -15,10 -22,17 -27,25 -42,64 -43,102 -2,39 8,78 31,108 -15,7 -30,12 -47,17 -16,-5 -33,-10 -48,-17 23,-30 37,-69 33,-108 -1,-40 -18,-77 -45,-102 -7,-7 -13,-12 -22,-17 5,-6 10,-13 17,-20l0 0zm-215 109c14,-25 30,-45 49,-59 20,-16 43,-26 67,-28 17,-2 32,2 47,7 -13,21 -24,40 -30,62 -14,45 -7,90 18,126 10,15 25,26 39,37 -27,18 -62,23 -93,13 -23,-8 -41,-30 -50,-54 0,0 2,0 2,0 17,0 30,-13 30,-32 0,-16 -12,-30 -30,-30 -15,0 -29,10 -30,25 0,0 0,2 0,2 0,2 0,2 0,3 0,0 0,2 0,2 0,0 0,2 0,2 -2,42 25,82 62,99 -36,5 -72,13 -109,22 -14,-66 -5,-138 28,-197l0 0zm-258 275c-17,-3 -34,-15 -44,-36 -13,-29 -15,-61 -5,-84 2,-2 2,-4 3,-7 2,0 4,2 5,2 26,8 47,33 56,62 8,22 6,43 -4,58 0,0 0,0 -1,0 -4,4 -7,5 -10,5 0,0 0,0 0,0l0 0zm-203 106c-12,22 -42,30 -64,19 -9,-5 -15,-12 -19,-20 5,3 12,5 17,5 17,0 32,-12 32,-31 0,-3 0,-5 -2,-8 0,-5 -3,-10 -5,-13 -5,-5 -11,-9 -20,-10 -12,-2 -22,1 -32,10 -10,8 -16,21 -16,35 -2,20 13,42 35,54 8,5 18,6 28,6 -5,4 -10,9 -15,12 0,0 0,0 0,0 -35,12 -69,15 -104,10 -2,-25 -2,-49 2,-72 5,-30 15,-52 30,-67 15,-15 37,-25 62,-24 27,0 52,12 64,30 15,19 18,46 7,64l0 0zm-264 57c19,12 35,20 55,27 7,2 14,3 22,5 4,20 10,42 19,62 -20,-8 -42,-13 -64,-18 0,-7 -2,-15 -3,-22 -9,-17 -19,-35 -29,-54l0 0zm-18 190c-12,-22 -32,-34 -56,-34 -11,0 -23,5 -33,15 -9,11 -12,21 -10,32 1,9 5,15 10,20 3,4 8,6 13,7 3,0 5,2 9,2 15,0 30,-14 30,-32 0,-7 -2,-12 -5,-17 8,4 15,10 20,19 12,22 3,52 -19,65 -16,10 -45,7 -63,-7 -19,-15 -31,-38 -31,-65 0,-25 9,-47 24,-62 15,-15 37,-25 65,-30 24,-4 49,-5 74,-2 5,34 2,69 -10,104 0,0 0,0 0,0 -3,5 -8,10 -12,15 0,-12 -1,-22 -6,-30l0 0zm-151 289c-14,10 -34,10 -57,3 -31,-10 -54,-32 -64,-57 0,-2 -2,-3 -2,-5 2,-2 3,-2 7,-3 27,-11 59,-9 85,5 21,10 34,26 37,43 0,0 0,0 0,2 -1,3 -3,7 -5,10 0,2 -1,2 -1,2l0 0zm-358 364c2,-24 12,-46 27,-67 15,-19 35,-36 60,-49 59,-32 131,-42 197,-29 -9,36 -17,73 -22,110 -19,-39 -59,-66 -101,-64 0,0 -1,0 -1,0 0,0 0,0 -2,0 -2,0 -2,0 -3,0 0,0 -2,0 -2,0 -15,3 -25,15 -25,30 0,17 13,32 32,32 18,0 31,-14 31,-32 0,0 0,-2 0,-2 24,9 42,27 52,51 12,30 6,67 -11,94 -10,-15 -22,-29 -37,-41 -34,-23 -79,-30 -126,-18 -22,7 -42,15 -62,30 -5,-13 -9,-30 -7,-45l0 0zm215 92c-25,22 -60,34 -94,32 -34,-2 -65,-17 -89,-39 -5,-3 -10,-10 -15,-16 20,-14 38,-22 59,-29 38,-10 77,-5 104,14 15,11 25,25 35,38l0 0zm-235 133c-5,-4 -8,-9 -13,-14 -21,-20 -42,-38 -68,-50 26,-12 47,-32 68,-52 5,-5 8,-9 13,-14 7,-6 13,-11 20,-15 5,5 10,14 15,20 27,27 66,44 104,46 2,0 5,0 9,0 37,0 72,-12 99,-35 5,15 10,31 15,48 -5,17 -10,32 -15,47 -31,-22 -69,-35 -108,-32 -40,2 -77,17 -104,44 -5,7 -10,13 -15,22 -8,-4 -15,-9 -20,-15l0 0zm235 6c-8,16 -20,29 -35,39 -29,20 -66,25 -104,13 -20,-5 -39,-15 -59,-28 5,-7 10,-14 15,-19 22,-23 55,-37 89,-38 34,0 69,12 94,33l0 0zm-128 208c-25,-13 -45,-30 -60,-46 -15,-21 -25,-46 -27,-69 -2,-17 2,-31 7,-46 20,14 40,24 62,29 45,13 91,7 126,-17 15,-10 27,-25 37,-40 18,28 23,62 11,92 -8,25 -28,44 -52,52 0,0 0,-1 0,-1 0,-17 -13,-32 -31,-32 -19,0 -32,13 -32,32 0,15 11,26 25,28 0,0 2,0 2,0 1,0 1,0 3,0 0,0 0,0 2,0 0,0 1,0 1,0 42,2 81,-23 101,-62 5,37 13,72 22,109 -66,17 -138,5 -197,-29l0 0zm277 262c-3,17 -16,34 -37,42 -28,14 -60,15 -85,5 -2,-1 -4,-1 -7,-3 0,-2 2,-2 2,-3 10,-26 35,-47 64,-57 21,-9 42,-7 57,3 0,0 1,0 1,2 2,3 4,6 5,11 0,-1 0,0 0,0l0 0zm41 207c20,-15 47,-19 63,-7 22,13 31,44 19,64 -5,8 -12,15 -20,18 3,-5 5,-11 5,-17 0,-15 -14,-30 -30,-30 -4,0 -6,0 -9,2 -5,0 -10,3 -13,7 -5,5 -9,11 -10,18 -2,12 1,22 10,32 8,10 22,17 33,17 22,0 44,-14 56,-35 5,-9 6,-17 6,-27 4,5 9,10 12,13 0,0 0,0 0,0 12,35 15,71 10,106 -25,0 -48,0 -74,-2 -28,-5 -50,-15 -65,-30 -15,-17 -25,-40 -24,-64 0,-25 12,-50 31,-65l0 0zm127 184c0,0 0,0 0,0 0,0 0,0 0,0l0 0zm49 49c-19,7 -37,15 -56,27 12,-19 21,-37 27,-57 2,-7 4,-14 5,-22 20,-3 42,-10 62,-18 -8,20 -15,41 -18,63 -5,4 -13,5 -20,7l0 0zm101 97c0,14 6,26 16,36 10,8 20,11 32,10 9,-2 15,-5 20,-10 4,-4 5,-9 7,-14 0,-3 2,-5 2,-8 0,-17 -14,-32 -32,-32 -7,0 -12,2 -17,5 3,-8 10,-15 18,-20 22,-12 53,-4 64,18 12,19 9,47 -6,64 -14,19 -37,30 -64,30 -25,0 -49,-8 -62,-23 -15,-14 -25,-35 -31,-66 -3,-23 -5,-48 -1,-72 33,-5 69,-2 104,10 0,0 0,0 0,0 5,4 10,9 15,12 -10,0 -20,2 -29,5 -25,12 -38,34 -37,55l1 0zm322 96c10,13 11,35 3,59 -8,28 -30,52 -55,62 -2,0 -4,2 -5,2 -2,-2 -2,-4 -4,-7 -10,-27 -8,-57 5,-84 10,-22 27,-35 44,-39 0,0 0,0 2,0 3,2 6,4 8,5 0,2 0,2 2,2l0 0zm364 359c-24,-1 -45,-12 -67,-28 -19,-15 -35,-36 -49,-59 -33,-61 -42,-131 -30,-198 37,8 74,17 109,22 -37,18 -64,60 -62,99 0,0 0,1 0,1 0,0 0,2 0,2 0,2 0,2 0,3 0,0 0,2 0,2 3,15 15,27 30,27 17,0 30,-13 30,-32 0,-17 -11,-30 -30,-30 0,0 -2,0 -2,0 9,-24 27,-44 51,-54 30,-12 67,-5 92,14 -13,10 -27,21 -38,37 -24,31 -31,78 -19,124 7,22 15,42 30,64 -13,6 -30,8 -45,6l0 0zm226 22c-3,5 -8,8 -13,13 -20,19 -39,41 -50,68 -12,-27 -32,-49 -52,-68 -5,-5 -9,-8 -14,-13 -6,-7 -11,-13 -16,-20 6,-5 15,-10 21,-17 27,-27 44,-64 46,-102 1,-41 -10,-77 -34,-108 15,-6 32,-11 49,-16 15,5 32,10 47,16 -24,31 -35,67 -34,108 2,40 19,75 46,102 6,7 13,12 21,17 -5,7 -11,13 -16,20l-1 0zm215 -109c-13,23 -30,44 -47,59 -20,16 -45,27 -68,28 -17,2 -32,-1 -46,-7 12,-21 22,-41 29,-63 13,-44 6,-91 -19,-124 -8,-16 -23,-27 -38,-37 28,-21 62,-26 92,-14 25,9 44,30 52,54 0,0 -2,0 -2,0 -16,0 -32,12 -32,30 0,17 14,32 32,32 14,0 27,-12 29,-25 0,0 0,-2 0,-2 0,-2 0,-2 0,-3 0,0 0,0 0,-2 0,0 0,-2 0,-2 2,-40 -24,-80 -62,-100 37,-5 72,-14 109,-22 15,67 5,137 -29,198zm260 -277c17,3 32,17 42,39 14,28 16,58 5,83 -1,2 -1,4 -3,7 -2,0 -3,-1 -5,-1 -23,-11 -45,-36 -55,-63 -9,-21 -7,-43 3,-58 0,0 0,-2 2,-2 5,-3 8,-5 11,-5 0,0 0,0 0,0l0 0zm202 -106c13,-22 43,-30 64,-18 8,5 15,12 18,20 -5,-3 -12,-5 -17,-5 -16,0 -30,13 -30,32 0,3 0,5 2,8 0,5 3,10 5,14 5,5 10,8 18,10 12,1 22,-2 32,-10 10,-9 17,-22 17,-36 2,-21 -13,-43 -35,-55 -9,-3 -19,-5 -29,-5 5,-3 10,-8 15,-12 0,0 0,0 0,0 36,-12 71,-15 104,-10 2,24 2,47 -1,72 -5,30 -14,52 -29,66 -17,15 -40,25 -64,23 -27,0 -50,-12 -63,-30 -16,-17 -19,-44 -7,-64l0 0zm265 -55c-18,-12 -37,-20 -57,-27 -7,-2 -13,-3 -22,-5 -3,-22 -10,-44 -18,-64 20,9 42,14 63,19 2,6 4,15 6,21 8,19 18,37 28,56zm-5 -76c0,0 0,0 0,0 0,0 0,0 0,0l0 0zm22 -115c12,21 33,35 55,35 14,0 25,-7 35,-17 7,-10 11,-20 9,-32 -2,-7 -5,-13 -9,-18 -3,-4 -8,-5 -13,-7 -3,0 -5,-2 -8,-2 -17,0 -32,14 -32,30 0,7 1,12 5,17 -9,-3 -15,-10 -20,-18 -12,-20 -4,-51 18,-64 19,-12 47,-8 64,7 18,15 30,38 30,64 0,25 -8,48 -23,63 -16,15 -36,25 -66,30 -23,4 -49,6 -72,2 -5,-33 -2,-70 10,-106 0,0 0,0 0,0 2,-3 7,-8 10,-13 0,12 2,20 7,29zm151 -287c13,-10 35,-12 57,-4 30,10 54,32 64,57 0,0 1,2 1,4 -1,1 -3,1 -6,3 -27,10 -59,8 -84,-5 -22,-8 -36,-25 -39,-42 0,0 0,0 0,-2 2,-3 3,-6 5,-10 0,-1 0,-1 2,-1l0 0zm359 -366c-2,23 -12,47 -28,69 -16,18 -36,33 -61,46 -59,34 -129,44 -196,31 8,-37 16,-72 22,-109 18,38 60,63 100,62 0,0 2,0 2,0 0,0 0,0 2,0 1,0 1,0 3,0 0,0 2,0 2,0 15,-4 25,-14 25,-29 0,-17 -14,-32 -32,-32 -17,0 -32,14 -32,32 0,0 0,2 0,2 -22,-9 -42,-27 -52,-52 -12,-30 -5,-66 13,-92 11,15 22,28 36,40 33,22 80,28 126,17 21,-5 42,-14 63,-29 5,13 9,29 7,44zm-215 -93c24,-21 59,-33 94,-31 32,1 64,16 87,38 6,5 11,12 16,19 -21,13 -39,21 -59,28 -37,10 -77,5 -104,-13 -15,-12 -25,-25 -34,-41zm247 -18c-5,5 -8,8 -14,13 -5,7 -11,12 -18,17 -5,-7 -10,-15 -17,-22 -27,-27 -65,-42 -102,-43 -40,-2 -79,10 -108,32 -6,-16 -11,-31 -16,-47 5,-17 10,-34 16,-49 27,22 61,35 98,35 3,0 7,0 10,0 38,-2 75,-18 102,-45 7,-7 12,-14 17,-20 7,3 13,8 18,15 6,3 9,8 14,13 20,20 42,40 69,52 -25,10 -47,30 -69,49l0 0z"/>
   <path class="fil2" d="M6812 4087c15,-20 32,-39 52,-54 -15,-25 -32,-52 -52,-75 -20,23 -39,50 -54,75 22,17 40,34 54,54z"/>
   <path class="fil2" d="M8624 5794c-15,20 -33,38 -52,54 19,15 37,31 52,52 27,-16 54,-32 76,-52 -24,-21 -49,-39 -76,-54z"/>
   <path class="fil2" d="M6812 7608c-15,20 -34,37 -54,52 15,27 34,54 54,77 18,-23 37,-50 52,-77 -20,-17 -37,-32 -52,-52z"/>
   <path class="fil2" d="M4999 5794c-27,15 -52,33 -75,54 23,20 48,36 75,52 15,-21 34,-37 54,-52 -20,-16 -39,-34 -54,-54z"/>
   <path class="fil2" d="M6644 4661c0,0 2,0 2,0 0,0 0,0 0,0 6,-2 11,-7 11,-15 -1,-7 -8,-12 -15,-12 -6,2 -12,9 -12,15 2,7 9,12 14,12z"/>
   <path class="fil2" d="M6718 4654c3,0 3,0 0,0 8,0 13,-6 13,-13 0,-7 -7,-12 -13,-12 -5,0 -10,7 -10,14 0,5 5,11 10,11z"/>
   <path class="fil2" d="M6572 4673c0,0 1,0 1,0 7,-2 12,-7 11,-14 -2,-6 -9,-11 -16,-10 -6,2 -11,9 -10,15 2,5 7,9 14,9l0 0z"/>
   <path class="fil2" d="M6793 4649l0 0c7,0 14,-6 14,-13 0,-7 -5,-14 -14,-14 -6,0 -13,5 -13,14 2,8 7,13 13,13z"/>
   <path class="fil2" d="M6500 4690c0,0 0,0 1,0 7,-2 12,-9 10,-16 -1,-5 -8,-10 -13,-8 -7,2 -12,8 -8,13 -2,7 5,11 10,11l0 0z"/>
   <path class="fil2" d="M5835 5143c3,0 8,-2 8,-5 4,-5 4,-14 -1,-19 -5,-3 -14,-3 -19,4 -3,5 -3,13 4,18 3,2 5,2 8,2z"/>
   <path class="fil2" d="M7087 4679c2,0 2,0 3,0 5,0 12,-3 14,-8 1,-7 -4,-13 -10,-15 -7,-2 -14,3 -15,10 -4,5 1,12 8,13l0 0z"/>
   <path class="fil2" d="M7015 4668c0,0 2,0 2,0 6,0 11,-5 13,-10 2,-7 -3,-14 -10,-15 -7,-2 -14,3 -15,10 -2,6 3,13 10,15z"/>
   <path class="fil2" d="M6427 4711c2,0 4,0 4,0 6,-1 10,-10 8,-16 -2,-7 -10,-10 -17,-9 -6,2 -10,10 -8,17 2,5 8,8 13,8z"/>
   <path class="fil2" d="M6941 4658c0,0 0,0 0,0 8,0 13,-5 13,-12 0,-7 -5,-13 -11,-15 -5,0 -12,5 -12,12 -2,6 5,13 10,15l0 0z"/>
   <path class="fil2" d="M6867 4651c0,0 2,0 0,0 7,0 14,-5 14,-12 0,-7 -6,-13 -12,-13 -7,0 -14,5 -14,12 0,6 5,13 12,13z"/>
   <path class="fil2" d="M6038 4926c3,0 5,-2 8,-3 5,-5 7,-14 2,-19 -5,-5 -13,-6 -18,-1 -5,5 -7,13 -2,18 3,3 7,5 10,5z"/>
   <path class="fil2" d="M5981 4977c3,0 7,-2 8,-4 5,-5 5,-13 0,-18 -5,-5 -13,-5 -18,0l0 0c-5,5 -5,13 0,18 3,2 7,4 10,4z"/>
   <path class="fil2" d="M6097 4883c3,0 5,0 8,-2 5,-3 7,-12 4,-19 -4,-5 -12,-6 -19,-3 -5,3 -7,12 -3,19 1,1 5,5 10,5z"/>
   <path class="fil2" d="M5879 5086c3,0 6,-2 10,-5 5,-5 3,-14 -2,-19 -5,-5 -13,-3 -18,2 -6,5 -4,13 1,18 4,2 7,4 9,4z"/>
   <path class="fil2" d="M5929 5029c3,0 7,-2 10,-4 5,-5 5,-13 0,-18 -5,-5 -13,-5 -18,0 -5,5 -5,13 0,18 1,2 5,4 8,4z"/>
   <path class="fil2" d="M6357 4737c2,0 3,0 5,-2 7,-3 10,-10 7,-17 -4,-7 -10,-10 -17,-7 -7,4 -10,10 -7,17 2,7 7,9 12,9l0 0z"/>
   <path class="fil2" d="M7159 4700c0,0 0,0 2,0 5,0 10,-4 12,-9 1,-6 -2,-13 -9,-17 -7,-1 -12,2 -15,9 -2,7 3,15 10,17z"/>
   <path class="fil2" d="M6288 4767c2,0 3,0 5,-2 7,-3 10,-10 7,-17 -4,-6 -10,-10 -17,-6 -5,3 -7,10 -5,16 2,7 5,9 10,9z"/>
   <path class="fil2" d="M6223 4800c1,0 5,0 6,-1 7,-4 9,-12 5,-17 -3,-5 -11,-7 -16,-4 -7,4 -9,11 -5,16 1,5 5,6 10,6z"/>
   <path class="fil2" d="M6159 4839c2,0 5,0 7,-2 6,-3 6,-11 3,-18 -3,-7 -12,-9 -19,-4 -6,4 -8,12 -3,19 3,3 9,5 12,5z"/>
   <path class="fil2" d="M7852 5238c2,0 5,0 7,-1 7,-4 8,-12 5,-17 -3,-5 -12,-7 -18,-3 -7,3 -9,10 -5,15 3,5 8,6 11,6z"/>
   <path class="fil2" d="M7960 5504c1,5 6,8 11,8 2,0 2,0 4,0 6,-2 10,-10 8,-17 -2,-7 -10,-10 -17,-8 -5,3 -8,10 -6,17l0 0z"/>
   <path class="fil2" d="M7948 5441c2,0 3,0 5,0 7,-3 10,-10 8,-16 -1,-7 -10,-10 -16,-9 -7,2 -10,10 -9,17 2,5 7,8 12,8l0 0z"/>
   <path class="fil2" d="M7978 5574c2,7 7,10 14,10 1,0 1,0 3,0 7,-2 12,-8 10,-15 -2,-7 -8,-12 -15,-10 -9,2 -14,8 -12,15l0 0z"/>
   <path class="fil2" d="M7814 5176c1,0 3,0 5,-1 6,-4 8,-12 3,-19l0 0c-3,-7 -10,-8 -17,-3 -6,3 -8,12 -3,18 3,4 8,5 12,5l0 0z"/>
   <path class="fil2" d="M7921 5373c2,0 3,0 5,-2 5,-3 9,-10 5,-17 -3,-7 -8,-10 -15,-7 -7,4 -10,10 -7,17 4,5 7,9 12,9l0 0z"/>
   <path class="fil2" d="M7889 5305c2,0 4,0 5,-1 7,-4 9,-12 5,-17 -3,-7 -11,-8 -16,-5 -7,3 -9,12 -6,17 4,3 7,6 12,6l0 0z"/>
   <path class="fil2" d="M7228 4723c2,0 3,0 5,0 5,0 10,-3 12,-8 1,-7 -2,-14 -9,-17l0 0c-6,-3 -13,2 -16,8 -2,7 1,15 8,17l0 0z"/>
   <path class="fil2" d="M8008 5794c0,7 7,12 14,12 0,0 0,0 0,0 7,0 13,-7 12,-14 0,-7 -7,-13 -14,-12 -7,0 -12,7 -12,14z"/>
   <path class="fil2" d="M8023 5856c-6,0 -13,5 -13,13 0,7 5,12 13,12 0,0 0,0 0,0 7,0 14,-3 14,-12 -2,-6 -7,-13 -14,-13z"/>
   <path class="fil2" d="M8003 5720c0,7 7,12 14,12 0,0 0,0 1,0 7,0 12,-7 12,-14 0,-6 -7,-11 -13,-11 -9,0 -14,6 -14,13l0 0z"/>
   <path class="fil2" d="M7993 5648c0,0 0,0 0,0 2,7 7,10 14,10 0,0 1,0 1,0 7,-2 12,-8 10,-15 -1,-7 -8,-12 -15,-10 -6,1 -11,8 -10,15z"/>
   <path class="fil2" d="M7770 5116c3,0 5,0 8,-4 5,-3 7,-10 2,-16 -5,-5 -12,-7 -18,-2 -5,5 -7,12 -2,17 2,3 5,5 10,5z"/>
   <path class="fil2" d="M7428 4819c1,1 5,1 6,1 5,0 9,-1 12,-6 4,-7 2,-14 -5,-19 -7,-3 -13,-1 -18,5 -4,7 -2,14 5,19l0 0z"/>
   <path class="fil2" d="M7297 4752c1,0 3,1 5,1 5,0 10,-3 12,-8 3,-7 0,-13 -7,-17 -7,-3 -14,0 -17,7 -3,5 0,13 7,17l0 0z"/>
   <path class="fil2" d="M7496 4861c4,0 9,-2 11,-5 3,-5 1,-14 -4,-19 -5,-3 -13,-1 -17,4 -3,5 -1,13 2,18 3,0 5,2 8,2l0 0z"/>
   <path class="fil2" d="M7364 4782c2,2 3,2 5,2 5,0 8,-2 10,-6 3,-6 0,-13 -3,-16 -7,-4 -14,0 -17,5 -3,5 -2,13 5,15l0 0z"/>
   <path class="fil2" d="M7661 5000c0,0 2,0 0,0 3,2 7,3 10,3 3,0 7,-1 8,-1 5,-5 5,-14 0,-19 0,0 0,0 -1,0 0,0 0,0 0,-1 -5,-5 -14,-5 -19,0 -3,5 -3,13 2,18 0,0 0,0 0,0l0 0z"/>
   <path class="fil2" d="M7557 4903c3,0 8,-2 10,-5 5,-5 3,-12 -2,-17 -5,-5 -13,-3 -18,2 -5,5 -4,11 1,16 4,4 7,4 9,4z"/>
   <path class="fil2" d="M7721 5059c4,0 7,-2 9,-4 5,-5 6,-13 1,-18 -5,-5 -13,-5 -18,-2 -5,5 -5,14 -2,19 4,3 7,5 10,5z"/>
   <path class="fil2" d="M7614 4951c3,0 7,-1 10,-5 5,-5 3,-13 -2,-18 -5,-5 -13,-4 -18,2 -5,5 -3,13 2,18 3,2 5,3 8,3z"/>
   <path class="fil2" d="M5785 5205c1,1 5,1 6,1 4,0 9,-1 10,-5 4,-6 2,-13 -3,-18 -5,-3 -13,-2 -18,3 -2,5 0,14 5,19z"/>
   <path class="fil2" d="M7191 6984c-7,1 -10,10 -8,17 1,5 6,8 11,8 2,0 4,0 4,0 6,-2 10,-10 8,-17 -2,-7 -8,-12 -15,-8z"/>
   <path class="fil2" d="M7121 7004c-7,2 -12,8 -11,15 2,5 7,10 12,10 2,0 2,0 4,0 6,-2 11,-8 8,-15 2,-7 -7,-12 -13,-10l0 0z"/>
   <path class="fil2" d="M7048 7021c-5,1 -10,8 -8,15 2,7 7,10 12,10 1,0 1,0 3,0 7,-2 12,-8 10,-15 -3,-7 -10,-10 -17,-10z"/>
   <path class="fil2" d="M7262 6959c-7,3 -11,10 -7,16 1,4 7,7 12,7 0,0 1,0 3,-2 7,-3 10,-8 7,-15 -4,-5 -10,-8 -15,-6l0 0z"/>
   <path class="fil2" d="M5748 5267c1,2 3,2 6,2 5,0 9,-2 12,-7 3,-7 2,-14 -5,-17 -7,-3 -13,-2 -17,5l0 0c-6,7 -3,14 4,17l0 0z"/>
   <path class="fil2" d="M7394 6895c-7,3 -8,12 -5,17 2,5 7,6 12,6 1,0 3,0 7,-1 6,-4 8,-12 5,-17 -5,-7 -14,-9 -19,-5l0 0z"/>
   <path class="fil2" d="M7329 6928c-7,4 -9,10 -7,17 2,5 7,7 12,7 1,0 3,0 5,-2 6,-3 10,-10 6,-17 -3,-5 -10,-6 -16,-5l0 0z"/>
   <path class="fil2" d="M7518 6816c-5,3 -6,12 -3,18 2,4 7,5 10,5 3,0 5,-1 8,-1 5,-5 7,-12 4,-19 -5,-5 -14,-6 -19,-3z"/>
   <path class="fil2" d="M6755 7044c-7,0 -14,5 -14,12 0,7 5,13 12,13 0,0 0,0 0,0 7,0 13,-5 13,-11 0,-7 -5,-14 -11,-14z"/>
   <path class="fil2" d="M6681 7038c-7,0 -14,5 -14,11 -1,7 5,14 12,14 0,0 2,0 2,0 7,0 12,-5 13,-12 0,-5 -5,-12 -13,-13l0 0z"/>
   <path class="fil2" d="M6535 7012c-7,-1 -14,4 -15,10 -2,7 3,14 10,16 1,0 1,0 3,0 5,0 12,-4 12,-11 2,-6 -2,-13 -10,-15z"/>
   <path class="fil2" d="M6902 7043c-6,0 -11,6 -11,13 0,7 6,12 13,12 0,0 0,0 2,0 6,0 11,-7 11,-14 -1,-8 -8,-13 -15,-11z"/>
   <path class="fil2" d="M6829 7046c-6,0 -12,5 -12,13 0,7 5,14 12,14l0 0c6,0 13,-5 13,-14 -2,-8 -7,-15 -13,-13z"/>
   <path class="fil2" d="M6976 7034c-7,2 -12,7 -12,15 2,7 7,12 14,12 0,0 2,0 2,0 6,-2 11,-7 11,-15 -1,-8 -8,-14 -15,-12z"/>
   <path class="fil2" d="M6609 7027c-7,-1 -14,4 -15,11 -2,6 3,13 10,15 0,0 1,0 1,0 5,0 10,-5 12,-10 2,-7 -3,-14 -8,-16z"/>
   <path class="fil2" d="M7909 6361c-6,-3 -13,0 -16,7 -4,7 0,13 6,17 2,0 4,1 5,1 5,0 10,-3 12,-6 3,-9 0,-15 -7,-19l0 0z"/>
   <path class="fil2" d="M7938 6292c-7,-3 -12,0 -15,7 -4,7 0,13 5,17 1,0 3,1 5,1 5,0 10,-3 12,-8 3,-7 0,-13 -7,-17l0 0z"/>
   <path class="fil2" d="M7985 6151c-7,-1 -14,2 -15,9 -2,6 1,13 8,15 2,0 2,0 3,0 6,0 11,-3 12,-10 2,-5 -1,-12 -8,-14l0 0z"/>
   <path class="fil2" d="M7577 6771c-5,5 -7,11 -2,18 2,3 7,5 10,5 4,0 5,-2 9,-3 5,-5 5,-14 2,-19 -6,-5 -12,-6 -19,-1z"/>
   <path class="fil2" d="M8002 6079c-7,-1 -14,4 -15,10 -2,7 3,12 10,14 0,0 1,0 1,0 7,0 12,-4 14,-9 0,-8 -4,-15 -10,-15l0 0z"/>
   <path class="fil2" d="M8020 5930c-7,0 -13,5 -13,12 0,6 5,13 11,13 0,0 0,0 2,0 7,0 12,-5 14,-12 0,-6 -7,-13 -14,-13l0 0z"/>
   <path class="fil2" d="M8013 6004c-6,-2 -13,3 -15,11 -1,7 4,14 12,16 0,0 2,0 2,0 6,0 11,-5 13,-12 0,-9 -5,-14 -12,-15z"/>
   <path class="fil2" d="M7963 6222c-7,-2 -13,2 -17,8 -1,7 2,14 9,17 1,0 3,0 3,0 5,0 10,-3 12,-8 3,-9 0,-15 -7,-17l0 0z"/>
   <path class="fil2" d="M7876 6427c-7,-2 -14,0 -17,5 -3,6 -2,13 5,16 2,2 3,2 7,2 5,0 8,-2 12,-7 1,-5 0,-13 -7,-16l0 0z"/>
   <path class="fil2" d="M7686 6670c-5,5 -5,13 0,18 2,2 5,4 9,4 3,0 6,-2 10,-4 3,-5 3,-13 0,-18 -7,-5 -15,-5 -19,0z"/>
   <path class="fil2" d="M7632 6722c-5,5 -5,13 0,18 4,4 7,4 10,4 4,0 7,-2 9,-4 5,-5 5,-13 0,-18 -5,-3 -14,-3 -19,0z"/>
   <path class="fil2" d="M7733 6616c-5,5 -3,14 2,19 1,1 5,3 8,3 4,0 7,-2 10,-5 5,-5 4,-13 -1,-18 -5,-6 -14,-6 -19,1z"/>
   <path class="fil2" d="M7778 6556c-3,5 -3,13 4,18 1,2 5,2 8,2 4,0 9,-2 10,-5 4,-5 4,-14 -3,-19 -5,-3 -14,-1 -19,4z"/>
   <path class="fil2" d="M7837 6492c-7,-3 -13,-2 -18,3 -2,5 -2,14 3,19 2,2 5,2 7,2 5,0 8,-2 12,-7 5,-5 3,-14 -4,-17l0 0z"/>
   <path class="fil2" d="M7458 6858c-7,3 -9,10 -3,17 1,3 6,6 10,6 1,0 5,0 6,-1 7,-4 9,-12 4,-17 -4,-7 -10,-8 -17,-5l0 0z"/>
   <path class="fil2" d="M5610 5990c7,0 12,-6 12,-13 0,-7 -7,-12 -14,-12 -6,0 -11,7 -11,13 0,7 5,12 13,12 0,0 0,0 0,0z"/>
   <path class="fil2" d="M5603 5915c7,0 14,-7 12,-14 0,-6 -7,-13 -13,-11 -7,0 -14,6 -12,13 0,7 7,12 13,12 0,0 0,0 0,0z"/>
   <path class="fil2" d="M5602 5841c6,0 13,-5 13,-14 0,-6 -5,-13 -13,-13 -7,0 -14,5 -14,13 2,7 7,14 14,14z"/>
   <path class="fil2" d="M5671 6254c-7,1 -11,10 -9,17 2,5 7,8 12,8 2,0 3,0 5,0 7,-2 10,-10 8,-17 -1,-7 -10,-10 -16,-8l0 0z"/>
   <path class="fil2" d="M5664 6193c-2,-6 -10,-10 -17,-8 -7,2 -10,10 -8,17 1,3 6,8 11,8 2,0 4,0 4,0 8,-3 11,-10 10,-17z"/>
   <path class="fil2" d="M5645 6119c-1,-6 -8,-11 -15,-10 -6,2 -10,9 -8,15 0,7 5,11 12,11 1,0 1,0 3,0 5,0 10,-7 8,-16z"/>
   <path class="fil2" d="M5630 6049c-1,-7 -8,-12 -13,-10 -7,2 -12,8 -10,15 1,7 6,10 13,10 0,0 2,0 2,0 5,-2 10,-8 8,-15l0 0z"/>
   <path class="fil2" d="M5605 5767c0,0 0,0 0,0 8,0 13,-5 13,-12 0,-6 -5,-13 -11,-13 -7,0 -14,5 -14,12 -1,6 4,11 12,13z"/>
   <path class="fil2" d="M5686 5403c1,0 3,2 5,2 5,0 10,-4 11,-9 4,-7 0,-13 -6,-17 -7,-3 -14,0 -17,7 -3,7 0,15 7,17l0 0z"/>
   <path class="fil2" d="M5659 5473c1,0 3,0 3,0 5,0 10,-3 12,-8 2,-7 -2,-14 -9,-17 -6,-2 -13,2 -16,9 0,6 3,13 10,16z"/>
   <path class="fil2" d="M5714 5334c2,0 3,2 5,2 5,0 10,-4 12,-5 2,-7 0,-14 -7,-17 -6,-3 -13,0 -17,7 -1,3 0,10 7,13l0 0z"/>
   <path class="fil2" d="M5622 5618c3,0 3,0 3,0 7,0 12,-4 14,-10 1,-7 -4,-14 -10,-16 -7,-1 -12,4 -14,11 -3,6 2,13 7,15z"/>
   <path class="fil2" d="M5639 5545c1,0 1,0 3,0 5,0 12,-3 12,-10 1,-6 -2,-13 -9,-15 -6,-1 -13,2 -15,9 -3,8 2,15 9,16z"/>
   <path class="fil2" d="M5612 5691c0,0 1,0 1,0 7,0 12,-5 12,-11 2,-7 -1,-14 -10,-15 -7,-2 -13,3 -15,11 0,7 5,14 12,15l0 0z"/>
   <path class="fil2" d="M6327 6944c-7,-4 -14,0 -17,6 -3,7 0,14 7,17 1,0 3,2 5,2 5,0 10,-4 11,-9 2,-6 -1,-13 -6,-16l0 0z"/>
   <path class="fil2" d="M6115 6839c-3,6 -3,14 4,19 1,2 5,2 6,2 4,0 9,-2 10,-5 4,-5 4,-14 -3,-19 -5,-3 -13,-2 -17,3z"/>
   <path class="fil2" d="M5699 6324c-7,4 -10,10 -7,17 2,5 7,8 12,8 2,0 3,0 5,-1 7,-4 10,-10 7,-17 -4,-7 -10,-10 -17,-7l0 0z"/>
   <path class="fil2" d="M6057 6794c-6,5 -4,14 1,19 2,1 4,3 7,3 3,0 8,-2 10,-5 5,-5 3,-14 -2,-19 -6,-5 -13,-3 -16,2z"/>
   <path class="fil2" d="M5998 6747c-5,5 -4,12 1,17 2,2 6,3 9,3 3,0 7,-1 10,-5 5,-5 3,-12 -2,-17 -5,-3 -13,-3 -18,2z"/>
   <path class="fil2" d="M6260 6912c-7,-4 -14,0 -17,5 -4,6 0,13 5,16 2,2 3,2 5,2 5,0 10,-2 12,-7 5,-6 1,-13 -5,-16l0 0z"/>
   <path class="fil2" d="M6394 6972c-5,-2 -12,2 -15,7 -4,6 1,13 8,17 2,0 3,0 3,0 6,0 11,-4 12,-9 2,-7 -1,-13 -8,-15l0 0z"/>
   <path class="fil2" d="M6464 6994c-6,-2 -13,2 -16,8 -2,7 1,14 8,17 2,0 2,0 3,0 5,0 10,-3 12,-8 5,-9 0,-15 -7,-17l0 0z"/>
   <path class="fil2" d="M6194 6875c-7,-4 -13,-2 -18,5 -4,6 -2,13 5,18 1,2 5,2 6,2 5,0 9,-2 12,-7 4,-7 2,-15 -5,-18l0 0z"/>
   <path class="fil2" d="M5783 6462c-3,-7 -12,-9 -17,-5 -7,3 -8,12 -5,17 2,3 7,6 12,6 2,0 5,0 7,-1 5,-4 6,-10 3,-17 0,0 0,0 0,0l0 0z"/>
   <path class="fil2" d="M5963 6695c-6,-5 -12,-5 -17,0 -5,5 -5,14 0,19 3,1 5,3 8,3 3,0 7,-2 9,-3 5,-5 5,-14 0,-19 0,0 0,0 0,0l0 0z"/>
   <path class="fil2" d="M5805 6521c-5,3 -7,11 -4,16 2,4 7,5 10,5 2,0 6,0 7,-1 5,-4 7,-10 4,-17 -4,-5 -12,-7 -17,-3z"/>
   <path class="fil2" d="M5731 6391c-7,4 -8,12 -5,17 2,5 7,7 10,7 2,0 3,0 5,-2 7,-3 8,-12 5,-17 -3,-5 -12,-8 -15,-5l0 0z"/>
   <path class="fil2" d="M5847 6581c-4,5 -7,12 -2,18 2,4 7,6 10,6 3,0 5,-2 8,-4 6,-5 7,-12 2,-18 -5,-5 -13,-5 -18,-2z"/>
   <path class="fil2" d="M5894 6641c-5,5 -5,12 -2,17 3,4 7,5 10,5 3,0 7,-1 8,-3 6,-5 6,-14 2,-17 -5,-7 -13,-7 -18,-2z"/>
   <path class="fil3" d="M6365 5532c0,35 10,67 31,94 21,27 48,50 82,72 30,24 67,46 106,67 36,20 72,46 105,73 30,28 59,58 81,95 22,37 32,81 32,134 0,34 -7,68 -19,98 -13,30 -30,55 -53,79 -22,23 -49,40 -81,53 -32,14 -65,19 -102,19 -36,0 -63,-4 -88,-10 -25,-7 -45,-15 -62,-24 -17,-10 -33,-22 -45,-33 -7,13 -17,27 -29,38 -11,12 -25,20 -38,24l-19 0c2,-14 2,-27 4,-40 1,-12 1,-26 3,-41 2,-15 2,-27 2,-40 0,-15 0,-30 -2,-45 -2,-16 -2,-29 -3,-42 -2,-14 -2,-27 -4,-41l19 0c20,74 50,131 90,170 39,40 93,59 158,59 54,0 97,-17 131,-52 34,-34 50,-83 50,-141 0,-37 -10,-69 -31,-96 -22,-25 -49,-50 -81,-72 -32,-24 -69,-46 -106,-66 -38,-22 -74,-47 -106,-74 -31,-26 -60,-58 -82,-95 -22,-35 -30,-81 -30,-134 0,-29 7,-59 17,-86 12,-27 28,-49 49,-71 20,-20 45,-36 72,-48 28,-12 58,-19 89,-19 26,0 52,4 72,10 20,7 37,15 52,24 17,10 32,22 45,33 7,-13 17,-26 29,-38 11,-12 23,-20 37,-24l20 0c-2,14 -4,27 -4,41 -1,13 -1,26 -1,40 0,13 0,27 0,40 0,15 0,30 0,46 0,15 1,28 1,41 2,14 2,27 4,41l-20 0c-19,-74 -49,-131 -86,-170 -37,-40 -82,-58 -136,-58 -44,0 -80,15 -111,46 -27,32 -42,73 -42,123l0 0z"/>
   <polygon class="fil3" points="6723,5371 6723,5357 7006,5357 7006,5371 6926,5391 7141,6096 7329,5405 7241,5371 7241,5357 7443,5357 7443,5371 7356,5405 7107,6317 7085,6316 6805,5391 "/>
   <path class="fil1" d="M4487 9627l0 25c-23,17 -50,25 -79,25 -15,0 -30,-3 -43,-8 -14,-5 -25,-13 -37,-23 -10,-11 -19,-22 -24,-37 -6,-14 -8,-29 -8,-46 0,-15 3,-30 8,-43 4,-14 12,-25 22,-36 10,-10 22,-20 37,-25 14,-6 30,-8 45,-8 14,0 27,2 39,5 13,3 27,10 39,20l0 24c-24,-21 -49,-32 -78,-32 -13,0 -25,3 -37,8 -11,5 -21,13 -28,22 -8,8 -15,18 -19,30 -5,12 -6,24 -6,37 0,18 3,35 12,49 8,15 20,27 33,35 14,8 29,13 45,13 12,0 27,-3 41,-8 13,-8 27,-17 38,-27l0 0z"/>
   <polygon class="fil1" points="4554,9671 4554,9471 4497,9471 4497,9454 4635,9454 4635,9471 4576,9471 4576,9671 "/>
   <polygon class="fil1" points="4689,9671 4719,9605 4638,9454 4662,9454 4729,9583 4786,9454 4808,9454 4709,9671 "/>
   <path class="fil1" d="M4855 9454l119 0 0 200 27 0 0 60 -20 2 0 -44 -150 0 0 42 -20 2 0 -62c15,0 25,-8 34,-24 6,-15 10,-35 10,-62l0 -114 0 0zm20 17l0 96c0,15 0,27 -2,37 -1,8 -3,18 -6,26 -4,9 -9,16 -16,22l105 0 0 -181 -81 0 0 0z"/>
   <polygon class="fil1" points="5031,9454 5053,9454 5053,9625 5201,9446 5201,9671 5180,9671 5180,9498 5031,9679 "/>
   <path class="fil1" d="M5248 9671l58 -96c-10,0 -20,-2 -28,-7 -10,-5 -19,-11 -24,-20 -6,-8 -8,-20 -8,-32 0,-6 2,-15 3,-20 2,-6 7,-13 12,-20 5,-7 13,-12 23,-15 9,-3 21,-5 36,-5l52 0 0 216 -22 0 0 -95 -20 0 -57 95 -25 0 0 -1 0 0zm99 -113l0 -85 -31 0c-13,0 -25,3 -35,8 -12,5 -17,17 -17,34 0,28 17,43 51,43l32 0 0 0z"/>
   <path class="fil1" d="M5548 9454l121 0 0 200 27 0 0 60 -20 2 0 -44 -152 0 0 42 -18 2 0 -62c13,0 24,-8 32,-24 7,-15 10,-35 10,-62l0 -114 0 0zm20 17l0 96c0,15 0,27 -2,37 -1,8 -3,18 -6,26 -4,9 -9,16 -17,22l104 0 0 -181 -79 0 0 0z"/>
   <path class="fil1" d="M5716 9562c0,-15 3,-31 8,-46 5,-13 12,-25 22,-35 10,-10 24,-18 37,-25 15,-7 30,-8 49,-8 16,0 31,3 47,8 15,7 26,15 38,25 10,10 19,22 24,35 5,14 8,29 8,46 0,15 -3,30 -8,45 -5,12 -14,25 -24,35 -10,10 -23,19 -38,25 -16,7 -31,9 -47,9 -19,0 -34,-4 -49,-9 -15,-5 -27,-15 -39,-25 -10,-10 -16,-23 -21,-35 -6,-13 -7,-29 -7,-45l0 0zm20 0c0,13 2,25 7,37 5,10 11,20 20,30 8,10 18,17 30,22 12,5 25,8 39,8 13,0 25,-3 38,-8 12,-5 22,-12 30,-22 9,-10 16,-20 21,-30 5,-12 6,-26 6,-37 0,-14 -1,-26 -6,-37 -5,-12 -12,-22 -21,-30 -8,-9 -18,-17 -30,-22 -12,-5 -25,-9 -38,-9 -15,0 -27,4 -41,9 -11,5 -22,11 -30,22 -8,6 -15,18 -20,30 -3,11 -5,25 -5,37l0 0z"/>
   <path class="fil1" d="M6172 9627l0 25c-22,17 -48,25 -79,25 -15,0 -30,-3 -42,-8 -13,-5 -25,-13 -36,-23 -10,-11 -19,-22 -26,-37 -6,-14 -8,-29 -8,-46 0,-15 3,-30 8,-43 5,-14 14,-25 24,-36 10,-10 22,-18 37,-25 12,-6 28,-8 43,-8 16,0 29,2 41,5 13,3 27,10 38,20l0 24c-23,-21 -48,-32 -79,-32 -13,0 -25,3 -35,8 -12,5 -22,13 -28,22 -9,8 -15,18 -19,30 -5,12 -6,24 -6,37 0,18 3,35 11,49 9,15 20,27 34,35 12,8 27,13 43,13 14,0 29,-3 42,-8 14,-8 27,-17 37,-27l0 0z"/>
   <polygon class="fil1" points="6241,9671 6241,9471 6182,9471 6182,9454 6320,9454 6320,9471 6263,9471 6263,9671 "/>
   <polygon class="fil1" points="6375,9671 6404,9605 6325,9454 6349,9454 6414,9583 6473,9454 6495,9454 6394,9671 "/>
   <polygon class="fil1" points="6520,9671 6520,9454 6688,9454 6688,9671 6666,9671 6666,9471 6542,9471 6542,9671 "/>
   <polygon class="fil1" points="6740,9671 6740,9454 6761,9454 6761,9543 6886,9543 6886,9454 6907,9454 6907,9671 6887,9671 6887,9560 6763,9560 6763,9671 "/>
   <path class="fil1" d="M6949 9562c0,-15 4,-31 9,-46 5,-13 13,-25 23,-35 10,-10 24,-18 37,-25 15,-7 30,-8 47,-8 19,0 34,3 49,8 15,7 27,15 38,25 9,10 17,22 22,35 5,14 9,29 9,46 0,15 -4,30 -9,45 -5,12 -13,25 -22,35 -10,10 -23,19 -38,25 -15,7 -30,9 -49,9 -17,0 -32,-4 -47,-9 -15,-6 -27,-15 -38,-25 -10,-10 -19,-23 -24,-35 -3,-13 -7,-29 -7,-45l0 0zm24 0c0,13 2,25 7,37 5,10 11,20 20,30 8,10 18,17 30,22 12,5 23,8 37,8 15,0 27,-3 40,-8 12,-5 22,-12 30,-22 9,-10 15,-20 20,-30 4,-12 6,-26 6,-37 0,-14 -2,-26 -6,-37 -5,-12 -11,-22 -20,-30 -8,-9 -18,-17 -30,-22 -12,-5 -25,-9 -40,-9 -15,0 -25,4 -39,9 -11,5 -22,11 -30,22 -8,6 -15,18 -20,30 -5,11 -5,25 -5,37z"/>
   <path class="fil1" d="M7228 9454l22 0 0 171 147 -179 0 225 -20 0 0 -173 -149 181 0 -225zm39 -40l16 -7c2,7 5,10 10,14 5,3 12,5 17,5 15,0 24,-7 29,-19l16 7c-5,10 -11,18 -20,22 -8,3 -16,5 -25,5 -8,0 -17,-2 -25,-5 -7,-4 -13,-12 -18,-22l0 0z"/>
   <path class="fil1" d="M7575 9454l121 0 0 200 25 0 0 60 -18 2 0 -44 -151 0 0 44 -20 0 0 -62c15,0 25,-8 33,-24 7,-15 10,-35 10,-62l0 -114 0 0zm20 17l0 96c0,15 0,27 0,37 -1,8 -3,18 -6,26 -4,9 -9,16 -17,22l104 0 0 -181 -81 0 0 0z"/>
   <polygon class="fil1" points="7753,9671 7753,9454 7869,9454 7869,9471 7775,9471 7775,9540 7866,9540 7866,9557 7775,9557 7775,9652 7869,9652 7869,9669 7753,9669 "/>
   <polygon class="fil1" points="7913,9671 7913,9454 8079,9454 8079,9671 8057,9671 8057,9471 7933,9471 7933,9671 "/>
   <polygon class="fil1" points="8133,9454 8153,9454 8153,9625 8302,9446 8302,9671 8280,9671 8280,9498 8133,9679 "/>
   <path class="fil1" d="M8376 9454l121 0 0 217 -22 0 0 -200 -77 0 0 118c0,13 0,23 -2,33 -2,10 -3,19 -8,27 -4,7 -9,13 -17,17 -5,3 -15,6 -25,6 -4,0 -10,0 -17,-1l0 -17c7,2 10,2 12,2 10,0 18,-4 25,-10 3,-7 7,-14 8,-24 2,-10 2,-18 2,-32l0 -136 0 0z"/>
   <path class="fil1" d="M8545 9671l59 -96c-10,0 -20,-2 -28,-7 -10,-5 -19,-11 -24,-20 -7,-8 -8,-20 -8,-32 0,-6 1,-15 3,-20 2,-6 7,-13 12,-20 5,-7 13,-12 22,-15 10,-3 21,-5 37,-5l52 0 0 216 -22 0 0 -95 -20 0 -57 95 -26 0 0 -1 0 0zm99 -113l0 -85 -30 0c-13,0 -25,3 -35,8 -12,5 -17,17 -17,34 0,28 17,43 51,43l31 0 0 0z"/>
   <polygon class="fil1" points="8718,9671 8718,9454 8740,9454 8740,9654 8863,9654 8863,9454 8884,9454 8884,9654 8911,9654 8911,9714 8891,9716 8891,9672 8718,9672 "/>
   <polygon class="fil1" points="8938,9454 8960,9454 8960,9625 9109,9446 9109,9671 9087,9671 9087,9498 8938,9679 "/>
   <polygon class="fil1" points="9161,9454 9183,9454 9183,9625 9333,9446 9333,9671 9311,9671 9311,9498 9161,9679 "/>
  </g>
  <rect class="fil4 str0" x="22" y="22" width="13630" height="13630"/>
 </g>
</svg>
