<?xml version="1.0" encoding="UTF-8"?>
<!DOCTYPE svg PUBLIC "-//W3C//DTD SVG 1.1//EN" "http://www.w3.org/Graphics/SVG/1.1/DTD/svg11.dtd">
<!-- Creator: CorelDRAW X7 -->
<svg xmlns="http://www.w3.org/2000/svg" xml:space="preserve" width="372px" height="372px" version="1.1" style="shape-rendering:geometricPrecision; text-rendering:geometricPrecision; image-rendering:optimizeQuality; fill-rule:evenodd; clip-rule:evenodd"
viewBox="0 0 7064 7064"
 xmlns:xlink="http://www.w3.org/1999/xlink">
 <defs>
  <style type="text/css">
   <![CDATA[
    .str0 {stroke:#EBECEC;stroke-width:22.4099}
    .fil5 {fill:none}
    .fil2 {fill:#2B2A29}
    .fil1 {fill:#4F4F4E}
    .fil3 {fill:#B2B3B3}
    .fil0 {fill:#2B2A29;fill-rule:nonzero}
    .fil4 {fill:#B2B3B3;fill-rule:nonzero}
   ]]>
  </style>
 </defs>
 <g id="Слой_x0020_1">
  <metadata id="CorelCorpID_0Corel-Layer"/>
  <g id="_2419673179008">
   <g id="_2219655060368">
    <path class="fil0" d="M1393 4842l85 -127 0 127 26 0 0 -163 -26 0 -84 124 0 -124 -26 0 0 163 25 0 0 0zm186 0l0 -73 84 0 0 73 26 0 0 -163 -26 0 0 68 -84 0 0 -68 -25 0 0 163 25 0zm232 4c29,0 48,-12 60,-28l-17 -16c-11,15 -25,21 -42,21 -34,0 -56,-27 -56,-63 0,-36 22,-62 56,-62 17,0 31,6 42,21l17 -16c-12,-16 -31,-28 -60,-28 -49,0 -80,37 -80,85 0,49 31,86 80,86l0 0zm150 -4l0 -140 48 0 0 -23 -120 0 0 23 46 0 0 140 26 0zm160 4c43,0 73,-33 73,-86 0,-52 -30,-85 -73,-85 -22,0 -43,12 -55,28l0 -24 -24 0 0 224 24 0 0 -86c13,18 33,29 55,29l0 0zm-6 -23c-20,0 -39,-13 -49,-26l0 -73c10,-15 29,-26 49,-26 33,0 52,26 52,62 0,36 -19,63 -52,63l0 0zm110 83c4,1 13,2 18,2 22,-1 38,-10 47,-33l82 -196 -28 0 -54 134 -53 -134 -27 0 67 164 -11 25c-5,13 -12,17 -23,17 -5,0 -11,-1 -15,-3l-3 24zm340 -64l0 -163 -34 0 -49 120 -50 -120 -33 0 0 163 24 0 0 -128 54 128 10 0 52 -128 0 128 26 0 0 0zm123 4c27,0 49,-9 65,-26l-13 -16c-12,14 -31,21 -50,21 -35,0 -56,-26 -58,-56l132 0 0 -6c0,-49 -30,-88 -78,-88 -47,0 -81,38 -81,85 0,50 35,86 83,86l0 0zm50 -95l-106 0c1,-26 18,-55 54,-55 36,0 52,30 52,55zm92 91l0 -73 84 0 0 73 25 0 0 -163 -25 0 0 68 -84 0 0 -68 -26 0 0 163 26 0zm214 0l0 -140 48 0 0 -23 -120 0 0 23 48 0 0 140 24 0zm192 0l85 -127 0 127 26 0 0 -163 -25 0 -85 124 0 -124 -26 0 0 163 25 0zm319 4c49,0 81,-39 81,-86 0,-47 -32,-85 -81,-85 -50,0 -80,38 -80,85 0,47 30,86 80,86zm0 -23c-35,0 -55,-30 -55,-63 0,-33 20,-62 55,-62 34,0 54,29 54,62 0,33 -20,63 -54,63zm193 0c-35,0 -55,-30 -55,-63 0,-33 20,-62 55,-62 34,0 54,29 54,62 0,33 -20,63 -54,63zm0 23c50,0 79,-39 79,-86 0,-46 -29,-85 -75,-85 -30,0 -50,16 -61,34 5,-27 19,-47 68,-55 27,-3 63,-11 63,-36l-24 0c0,6 -10,11 -46,16 -56,7 -85,40 -85,119 0,54 31,93 81,93zm194 0c49,0 80,-39 80,-86 0,-47 -31,-85 -80,-85 -50,0 -81,38 -81,85 0,47 31,86 81,86zm0 -23c-35,0 -55,-30 -55,-63 0,-33 20,-62 55,-62 34,0 54,29 54,62 0,33 -20,63 -54,63zm201 23c43,0 72,-33 72,-86 0,-52 -29,-85 -72,-85 -23,0 -43,12 -55,28l0 -24 -25 0 0 224 25 0 0 -86c14,18 33,29 55,29l0 0zm-6 -23c-21,0 -40,-13 -49,-26l0 -73c9,-15 28,-26 49,-26 32,0 51,26 51,62 0,36 -19,63 -51,63l0 0zm109 83c5,1 13,2 19,2 21,-1 38,-10 48,-33l81 -196 -28 0 -53 134 -55 -134 -27 0 68 164 -11 25c-6,13 -13,17 -24,17 -4,0 -10,-1 -13,-3l-5 24 0 0zm155 -24l25 0 0 -40 123 0 0 40 25 0 0 -63 -19 0 0 -140 -113 0 -10 80c-7,48 -16,59 -31,61l0 62zm63 -180l66 0 0 117 -97 0c13,-9 20,-26 24,-56l7 -61zm216 144c49,0 80,-39 80,-86 0,-47 -31,-85 -80,-85 -50,0 -81,38 -81,85 0,47 31,86 81,86zm0 -23c-36,0 -55,-30 -55,-63 0,-33 19,-62 55,-62 34,0 54,29 54,62 0,33 -20,63 -54,63zm212 19c31,0 48,-18 48,-45 0,-18 -14,-35 -30,-39 14,-5 26,-17 26,-37 0,-25 -17,-42 -45,-42l-90 0 0 163 91 0 0 0zm-5 -23l-61 0 0 -50 61 0c17,0 27,12 27,26 0,15 -11,24 -27,24l0 0zm-1 -72l-60 0 0 -45 60 0c16,0 24,8 24,23 0,12 -8,22 -24,22l0 0zm228 95l0 -112c0,-39 -28,-55 -62,-55 -27,0 -48,9 -66,27l12 17c15,-15 31,-22 50,-22 23,0 40,12 40,34l0 29c-12,-14 -30,-22 -53,-22 -27,0 -56,18 -56,54 0,36 29,54 56,54 22,0 40,-7 53,-23l0 19 26 0 0 0zm-69 -14c-25,0 -41,-15 -41,-36 0,-21 16,-35 41,-35 17,0 34,6 43,19l0 31c-9,13 -26,21 -43,21l0 0zm145 14l0 -73 85 0 0 73 24 0 0 -163 -24 0 0 68 -85 0 0 -68 -26 0 0 163 26 0zm185 0l86 -127 0 127 25 0 0 -163 -25 0 -86 124 0 -124 -24 0 0 163 24 0zm234 4c27,0 49,-9 65,-26l-12 -16c-12,14 -32,21 -50,21 -36,0 -56,-26 -59,-56l132 0 0 -6c0,-49 -29,-88 -78,-88 -46,0 -81,38 -81,85 0,50 36,86 83,86l0 0zm50 -95l-106 0c1,-26 19,-55 54,-55 36,0 52,30 52,55z"/>
    <path class="fil1" d="M3537 2487c-4,0 -7,-1 -12,-4l-692 -324c-10,-4 -21,-4 -29,2 -10,6 -15,16 -15,27l5 1282c0,12 6,22 17,28l432 205c10,5 21,4 31,-1 8,-6 13,-16 13,-27l0 -121c0,-11 6,-21 15,-27 9,-6 19,-6 29,-1l194 90c5,3 8,4 12,4l0 -689 739 555 0 0 0 0 1 -1 0 0 0 0 0 -2 0 -1 2 0 0 -1 1 -1 0 -3 0 -1 0 0 1 -1 0 -3 0 -1 0 -6 0 -19 5 -1259 0 -1 0 -2 0 -2 -1 0 0 -1 0 -4 -2 -2 -1 -2 -1 -3 -1 -2 -3 -2 -1 -1 -2 -3 -3 -1 -2 -1 -3 -1 -2 -1 -2 0 -3 -2 -4 0 -3 0 -4 2 -2 0 -3 1 -3 2 -8 3 -217 102 -296 138 -170 79 0 1 -1 0 -1 0 0 2 -1 0 0 0 -2 0 0 0 0 0 -1 0 0 0 0 0 0 0 -1 0 0 0 0 1 0 0 0 0 0 0 -1 0 0 0 0 0 0 0 -2 0 0 0 0 0 0 0 0 0 0 0 -1 0 0 0 0 0 0 0 0 0 0 0 0 0 0 0 -1 0 0 0 0 0z"/>
    <path class="fil2" d="M3537 2487c5,0 9,-1 12,-4l693 -324c10,-4 21,-4 29,2 10,6 15,16 15,27l-5 1282c0,12 -7,22 -18,28l-431 205c-10,5 -21,4 -30,-1 -9,-6 -15,-16 -15,-27l0 -121c0,-11 -5,-21 -13,-27 -10,-6 -21,-6 -31,-1l-194 90c-4,3 -7,4 -12,4l0 0 0 0 -1 0 -1 0 0 -1 -2 0 0 0 -1 0 -1 0 0 0 -1 0 0 -1 -2 0 0 0 -1 0 -1 -2 -4 -1 -6 -2 -10 -5 -11 -5c0,0 -1,-1 -1,-1l-163 -76c-10,-5 -20,-5 -29,1 -9,6 -15,16 -15,27l0 121c0,11 -5,21 -13,27 -10,5 -21,6 -31,1l-402 -192 0 0 -2 -1 -1 0 -1 -1 -1 0 -2 0 0 -1 -1 0 -1 -1 -1 0 -1 -2 -3 0 -1 -1 -1 0 -2 -1 -1 0 -2 -1 -1 -2 -2 0 -1 -1 -1 0 -4 -2 -1 0 0 0 -1 0 0 -1 -1 0 0 0 -2 -2 0 0 -1 -1 0 0 -1 -1 -1 -1 -1 -2 -3 -2 0 -1 34 -26 1 -1c0,0 0,0 0,0l654 -490 49 -38 0 -444 0 0z"/>
    <path class="fil2" d="M3537 3620l0 0 2 0 0 0 2 -1 1 0 0 0 1 0 1 0 0 0 2 0 0 -1 1 0 0 0 1 0 1 -2 4 -1 5 -2 11 -5 11 -5c0,0 0,-1 1,-1l162 -76c10,-5 21,-5 31,1 8,6 13,16 13,27l0 121c0,11 6,21 15,27 9,5 20,6 30,1l403 -192 0 0 1 -1 1 0 1 -1 0 0 2 0 1 -1 1 0 1 -1 1 0 2 -2 1 0 2 -1 2 0 0 -1 2 0 1 -1 1 -2 3 0 1 -1 1 0 4 -2 0 0 1 0 0 0 1 -1 0 0 2 0 1 -2 0 0 1 -1 0 0 1 -1 1 -1 2 -2 2 -2 0 -1 -34 -26 -1 -1c0,0 0,0 -1,0l-653 -490 -50 -38 -738 555 0 0 -1 0 0 -1 0 0 0 0 0 -2 -1 -1 0 0 0 -1 -2 -1 0 -3 0 -1 -1 0 0 -1 0 -3 0 -1 0 -6 0 -19 -5 -1259 0 -1 0 -2 0 -2 0 0 0 -1 1 -4 2 -2 1 -2 1 -3 1 -1 2 -3 2 -1 2 -3 3 -1 2 -1 3 -1 2 -1 3 0 2 -2 4 0 3 0 3 2 3 0 3 1 4 2 6 3 218 102 295 138 170 79 1 1 1 0 0 0 1 2 2 0 0 0 1 0 0 0 0 0 0 0 1 0 0 0 0 0 0 0 1 0 0 1 0 0 0 0 0 0 0 0 1 0 0 0 0 0 0 0 0 0 2 0 0 0 0 0 0 0 0 0 1 0 0 0 0 0 0 0 0 0 0 0 0 0 0 0 0 0 0 444 0 689 0 0z"/>
    <path class="fil3" d="M3537 3108c-4,0 -9,-2 -13,-4l-108 -50c-11,-6 -18,-17 -18,-30l0 -338c0,-13 -6,-22 -16,-28 -10,-7 -21,-8 -32,-3l-244 111c-12,6 -19,17 -19,31l0 447c0,14 7,25 19,31l415 195c6,2 11,2 16,2 6,0 11,0 16,-2l416 -195c11,-6 18,-17 18,-31l0 -447c0,-14 -7,-25 -19,-31l-243 -111c-11,-5 -22,-4 -32,3 -10,6 -16,15 -16,28l0 338c0,13 -7,24 -19,30l-106 50c-5,2 -10,4 -15,4l0 0z"/>
    <path class="fil4" d="M1582 4242c16,0 31,2 46,10 14,6 27,14 38,24 11,11 19,23 26,38 6,15 9,30 9,46 0,17 -3,32 -9,47 -7,14 -15,28 -26,39 -11,9 -23,18 -38,25 -15,6 -29,9 -45,9l-204 0 0 -387 292 0 0 90 -198 0c-3,0 -5,3 -5,7l0 47c0,3 2,5 5,5l109 0 0 0zm-109 88c-3,0 -5,2 -5,6l0 50c0,4 2,5 5,5l110 0c7,0 15,-3 21,-9 6,-6 8,-13 8,-22 0,-8 -2,-16 -8,-22 -6,-4 -14,-8 -22,-8l-109 0 0 0zm464 -236c23,0 45,4 66,14 20,8 39,21 53,35 16,15 28,33 37,54 8,21 13,43 13,66 0,20 -5,40 -12,60 -9,20 -19,37 -34,54 -16,17 -34,31 -56,41 -21,8 -43,13 -67,13l-98 0 0 50 -89 0 0 -387 187 0 0 0zm0 248c11,0 22,-1 31,-6 10,-4 19,-10 26,-16 7,-7 12,-16 17,-26 4,-9 6,-20 6,-31 0,-11 -2,-22 -6,-32 -5,-10 -10,-18 -17,-26 -7,-7 -16,-13 -26,-17 -9,-3 -20,-6 -31,-6l-92 0c-5,0 -6,1 -6,6l0 149c0,4 1,5 6,5l92 0 0 0zm558 139l-94 0 -14 -39c0,-4 -3,-5 -5,-5l-167 0c-3,0 -4,1 -5,5l-14 39 -93 0 139 -388 114 0 139 388zm-248 -139c-2,1 -2,4 0,5 1,1 2,2 4,2l96 0c4,0 6,-2 4,-7l-47 -133c-1,-2 -3,-4 -5,-4 -2,0 -5,2 -5,4l-47 133zm585 -57c10,11 17,23 22,36 5,14 7,27 7,42 0,16 -2,30 -8,45 -6,15 -15,27 -26,38 -11,11 -23,18 -38,24 -13,6 -29,10 -45,10l-207 0 0 -387 207 0c17,0 32,4 46,10 15,6 27,15 38,26 10,11 17,23 22,37 6,14 9,28 9,44 0,30 -9,54 -27,75l0 0zm-207 -48c0,4 1,5 6,5l109 0c9,0 15,-2 21,-8 6,-7 9,-14 9,-22 1,-9 -3,-16 -9,-22 -5,-5 -12,-9 -21,-9l-109 0c-5,0 -6,2 -6,5l0 51 0 0zm0 150c0,3 1,5 6,5l113 0c7,0 15,-4 21,-8 6,-7 8,-14 8,-22 0,-9 -3,-16 -8,-22 -6,-6 -14,-9 -21,-9l-113 0c-5,0 -6,1 -6,5l0 51 0 0zm617 -236c11,19 17,40 19,62 2,22 3,44 3,68l0 38 0 0c-1,17 -3,33 -6,49 -3,14 -8,30 -16,44 -14,24 -33,41 -59,52 -22,11 -52,16 -90,16 -37,0 -67,-5 -91,-16 -25,-11 -44,-29 -58,-52 -11,-20 -17,-41 -19,-63 -2,-22 -3,-45 -3,-68l0 -38 1 0c0,-17 3,-33 5,-49 3,-14 8,-30 16,-43 14,-24 33,-42 58,-53 24,-11 54,-16 91,-16 38,0 68,5 90,16 26,11 45,28 59,53zm-67 130c0,-17 -2,-34 -2,-50 -1,-15 -3,-28 -9,-37 0,-1 -1,-3 -4,-6 -2,-2 -6,-3 -11,-6 -5,-2 -12,-5 -21,-7 -8,-1 -20,-2 -35,-2 -15,0 -27,1 -35,2 -9,2 -16,5 -21,7 -5,3 -9,4 -11,6 -1,3 -4,5 -4,6 -5,9 -8,21 -8,37 -2,15 -2,31 -2,49l0 1c0,17 0,34 2,50 0,15 3,28 8,37 0,1 3,2 4,5 2,2 6,4 11,7 5,2 12,5 21,7 8,1 20,3 35,3 15,0 27,-2 35,-3 9,-2 16,-5 21,-7 5,-3 9,-5 11,-7 3,-3 4,-4 4,-5 6,-9 8,-21 9,-37 0,-15 2,-32 2,-49l0 -1z"/>
    <path class="fil0" d="M3708 4093l0 388 -88 0 0 -162c0,-1 -1,-1 -3,-3 -1,0 -2,0 -2,2l-50 103 -69 0 -49 -102c-1,-1 -3,-3 -4,-3 -1,2 -1,3 -1,4l0 161 -89 0 0 -388 83 0 92 192c0,0 2,1 3,1 1,0 1,-1 1,-1l93 -192 83 0 0 0zm466 388l-94 0 -15 -39c0,-4 -2,-5 -5,-5l-167 0c-2,0 -4,1 -5,5l-13 39 -94 0 139 -388 115 0 139 388zm-249 -139c-1,1 -1,4 0,5 1,1 2,2 5,2l95 0c5,0 7,-2 5,-7l-48 -133c-1,-2 -2,-4 -5,-4 -2,0 -5,2 -5,4l-47 133zm600 83l-13 11c-38,28 -81,43 -130,43 -27,0 -52,-4 -77,-14 -24,-10 -46,-24 -65,-41 -20,-20 -36,-42 -47,-65 -11,-24 -16,-50 -16,-78 0,-27 5,-52 16,-76 11,-24 27,-46 47,-64 19,-19 41,-33 65,-43 25,-10 50,-15 77,-15 49,0 92,15 130,44l12 10 -31 93 -25 -23c-11,-11 -25,-19 -39,-25 -15,-5 -30,-8 -47,-8 -17,0 -31,3 -46,8 -15,6 -28,15 -39,26 -23,21 -34,45 -34,73 0,15 3,28 8,40 6,14 15,25 26,34 11,11 24,20 39,25 15,6 29,8 46,8 17,0 32,-2 48,-8 14,-5 27,-14 39,-25l24 -23 32 93 0 0zm401 -332l0 88 -123 0c-2,0 -4,1 -4,5l0 295 -87 0 0 -295c0,-4 -3,-5 -5,-5l-124 0 0 -88 343 0zm133 89c-2,0 -5,1 -5,5l0 73c0,4 3,5 5,5l180 0 0 88 -180 0c-2,0 -5,2 -5,6l0 28c0,4 3,5 5,5l222 0 0 88 -314 0 0 -387 314 0 0 89 -222 0 0 0zm467 -88c24,0 46,4 66,14 21,8 39,21 54,35 16,15 28,33 37,54 8,21 13,43 13,66 0,20 -5,40 -12,60 -9,20 -20,37 -34,54 -16,17 -35,31 -57,41 -20,8 -42,13 -67,13l-97 0 0 50 -89 0 0 -387 186 0 0 0zm0 248c11,0 22,-1 32,-6 10,-4 18,-10 26,-16 7,-7 12,-16 17,-26 3,-9 6,-20 6,-31 0,-11 -3,-22 -6,-32 -5,-10 -10,-18 -17,-26 -8,-7 -16,-13 -26,-17 -10,-3 -21,-6 -32,-6l-91 0c-5,0 -6,1 -6,6l0 149c0,4 1,5 6,5l91 0 0 0z"/>
   </g>
  </g>
  <rect class="fil5 str0" x="11" y="11" width="7042" height="7042"/>
 </g>
</svg>
