<?xml version="1.0" encoding="UTF-8"?>
<!DOCTYPE svg PUBLIC "-//W3C//DTD SVG 1.1//EN" "http://www.w3.org/Graphics/SVG/1.1/DTD/svg11.dtd">
<!-- Creator: CorelDRAW X7 -->
<svg xmlns="http://www.w3.org/2000/svg" xml:space="preserve" width="1022px" height="273px" version="1.1" style="shape-rendering:geometricPrecision; text-rendering:geometricPrecision; image-rendering:optimizeQuality; fill-rule:evenodd; clip-rule:evenodd"
viewBox="0 0 220605 58870"
 xmlns:xlink="http://www.w3.org/1999/xlink">
 <defs>
  <style type="text/css">
   <![CDATA[
    .fil4 {fill:#FEFEFE}
    .fil3 {fill:#E3E3E3}
    .fil1 {fill:#FEFEFE;fill-rule:nonzero}
    .fil2 {fill:#FF461E;fill-rule:nonzero}
    .fil0 {fill:#FEFEFE;fill-rule:nonzero;fill-opacity:0.501961}
   ]]>
  </style>
 </defs>
 <g id="Слой_x0020_1">
  <metadata id="CorelCorpID_0Corel-Layer"/>
  <g id="_1526435804800">
   <path class="fil0" d="M77461 21499l1277 -6580 2022 0c907,0 1620,225 2139,676 519,450 778,1079 778,1887 0,1125 -366,2075 -1099,2852 -733,777 -1666,1165 -2796,1165l-2321 0zm1062 -801l1203 0c870,0 1587,-302 2153,-905 565,-602 848,-1348 848,-2236 0,-591 -180,-1044 -541,-1361 -360,-317 -857,-475 -1491,-475l-1193 0 -979 4977zm5807 801l1286 -6580 913 0 -1286 6580 -913 0zm2842 -2684c0,-1088 392,-2027 1175,-2819 782,-793 1708,-1189 2777,-1189 1000,0 1789,258 2367,774l-559 652c-199,-174 -463,-315 -792,-424 -330,-109 -662,-163 -997,-163 -845,0 -1558,312 -2139,937 -581,624 -872,1353 -872,2185 0,609 182,1094 545,1454 364,361 838,541 1422,541 714,0 1395,-289 2041,-867l177 -904 -1063 0 150 -802 1910 0 -643 3309 -801 0 74 -419 65 -280 -18 0c-149,155 -414,329 -793,522 -379,193 -798,289 -1258,289 -789,0 -1447,-258 -1976,-774 -528,-515 -792,-1190 -792,-2022zm6925 2684l1286 -6580 913 0 -1286 6580 -913 0zm4166 0l1128 -5778 -2256 0 149 -802 5434 0 -149 802 -2265 0 -1118 5778 -923 0zm2908 0l3607 -6580 1025 0 1081 6580 -923 0 -298 -1892 -2479 0 -1016 1892 -997 0zm2404 -2656l1995 0 -326 -2079 -84 -941 -19 0c-167,398 -310,711 -428,941l-1138 2079zm4288 2656l1286 -6580 913 0 -1127 5779 2954 0 -168 801 -3858 0zm5909 0l3606 -6580 1026 0 1081 6580 -923 0 -298 -1892 -2479 0 -1016 1892 -997 0zm2404 -2656l1995 0 -327 -2079 -83 -941 -19 0c-168,398 -311,711 -429,941l-1137 2079zm4269 -28c0,-1088 391,-2027 1174,-2819 783,-793 1709,-1189 2777,-1189 1001,0 1790,258 2368,774l-560 652c-198,-174 -463,-315 -792,-424 -329,-109 -662,-163 -997,-163 -845,0 -1558,312 -2139,937 -581,624 -871,1353 -871,2185 0,609 181,1094 545,1454 363,361 837,541 1421,541 715,0 1395,-289 2041,-867l177 -904 -1062 0 149 -802 1910 0 -643 3309 -801 0 74 -419 66 -280 -19 0c-149,155 -413,329 -792,522 -379,193 -799,289 -1258,289 -789,0 -1448,-258 -1976,-774 -528,-515 -792,-1190 -792,-2022zm6924 2684l1287 -6580 3821 0 -168 802 -2898 0 -401 2059 2358 0 -159 802 -2349 0 -419 2116 3057 0 -149 801 -3980 0zm5238 0l1286 -6580 858 0 2097 4269c49,105 104,239 163,400 59,162 107,295 144,401l47 158 19 0c31,-391 71,-711 121,-959l829 -4269 923 0 -1286 6580 -849 0 -2106 -4269 -354 -960 -19 0c-37,392 -77,712 -121,960l-839 4269 -913 0zm7149 -2740c0,-702 180,-1359 540,-1971 361,-612 841,-1095 1440,-1450 600,-354 1238,-531 1915,-531 454,0 895,72 1324,215 428,142 779,363 1053,661l-550 643c-466,-453 -1069,-680 -1808,-680 -820,0 -1519,308 -2097,923 -578,615 -867,1329 -867,2143 0,597 179,1088 536,1473 357,385 847,578 1468,578 777,0 1507,-283 2190,-849l401 727c-311,280 -712,512 -1202,695 -491,183 -970,275 -1436,275 -888,0 -1595,-264 -2120,-792 -525,-529 -787,-1215 -787,-2060zm7819 2740l550 -2787 -1445 -3793 988 0 783 2162 252 830 18 0c193,-292 379,-569 559,-830l1613 -2162 1109 0 -2964 3821 -540 2759 -923 0z"/>
   <g>
    <path class="fil1" d="M73432 44133l2858 -14698 5611 0c877,0 1624,151 2241,452 685,329 1213,816 1583,1460 370,644 555,1397 555,2261 0,1206 -312,2305 -936,3299 -623,994 -1435,1723 -2435,2189 -699,329 -1453,494 -2261,494l-2734 0 -884 4543 -3598 0zm5078 -7627l1747 0c507,0 911,-103 1213,-308 740,-493 1110,-1247 1110,-2261 0,-439 -127,-785 -380,-1038 -254,-254 -621,-381 -1100,-381l-1809 0 -781 3988z"/>
    <polygon class="fil1" points="86069,44133 88946,29438 98133,29438 97537,32521 91926,32521 91412,35193 96635,35192 96037,38274 90796,38275 90261,41050 95903,41050 95304,44133 "/>
    <path class="fil1" d="M98380 37790c0,-1472 387,-2854 1163,-4146 775,-1293 1806,-2317 3092,-3073 1286,-755 2644,-1133 4076,-1133 2015,0 3635,580 4862,1740 1226,1160 1839,2648 1839,4464 0,1498 -394,2903 -1183,4216 -789,1312 -1826,2352 -3112,3121 -1286,769 -2638,1154 -4056,1154 -2015,0 -3633,-594 -4852,-1780 -1220,-1187 -1829,-2708 -1829,-4563zm3579 -199c0,994 291,1803 874,2426 584,623 1339,934 2267,934 1207,0 2294,-500 3261,-1501 968,-1001 1452,-2197 1452,-3589 0,-968 -292,-1750 -875,-2347 -583,-596 -1339,-894 -2267,-894 -1219,0 -2310,487 -3271,1461 -961,974 -1441,2144 -1441,3510z"/>
    <path class="fil1" d="M113629 44133l2856 -14695 5611 0c877,0 1623,151 2240,452 685,329 1213,816 1582,1459 371,645 555,1398 555,2261 0,1206 -311,2305 -935,3299 -623,993 -1435,1722 -2435,2188 -699,329 -1452,493 -2261,493l-2733 0 -884 4543 -3596 0zm5076 -7625l1747 0c507,0 911,-103 1212,-308 740,-494 1110,-1247 1110,-2261 0,-438 -127,-785 -380,-1038 -254,-253 -620,-380 -1100,-380l-1808 0 -781 3987z"/>
    <polygon class="fil1" points="126271,44133 129128,29438 132724,29438 130464,41050 136465,41050 135848,44133 "/>
    <polygon class="fil1" points="167971,44133 170828,29438 174424,29438 172163,41050 178164,41050 177548,44133 "/>
    <path class="fil1" d="M179295 44133l7645 -14695 4131 0 2035 14695 -3597 0 -286 -3085 -4605 2 -1480 3083 -3843 0zm6721 -5960l2939 -1 -477 -5133c-1012,2102 -1569,3259 -2462,5134z"/>
    <path class="fil1" d="M194841 44133l2857 -14695 3494 0 2733 6864 584 1466 165 415c590,-3039 1105,-5706 1697,-8745l3596 0 -2856 14695 -3474 0c-1176,-2923 -2328,-5849 -3494,-8774 -591,3008 -1118,5764 -1705,8774l-3597 0z"/>
    <path class="fil1" d="M155382 44133l2857 -14695 5610 0c877,0 1624,151 2240,452 685,329 1213,816 1583,1459 370,644 555,1398 555,2261 0,1206 -312,2305 -935,3299 -624,993 -1436,1722 -2436,2188 -698,329 -1452,493 -2260,493l-2734 0 -884 4543 -3596 0zm5076 -7625l1747 0c507,0 911,-103 1213,-309 740,-493 1109,-1246 1109,-2260 0,-438 -126,-785 -380,-1038 -253,-253 -620,-380 -1099,-380l-1809 0 -781 3987z"/>
    <path class="fil1" d="M210222 39187c747,646 1548,1031 2466,1386 617,239 1230,358 1840,358 424,0 815,-103 1173,-308 357,-205 536,-520 536,-945 0,-572 -933,-1079 -1381,-1292 -391,-186 -816,-418 -1273,-696 -457,-278 -882,-573 -1273,-885 -391,-311 -719,-722 -984,-1233 -265,-510 -397,-1077 -397,-1700 0,-1339 530,-2412 1590,-3221 1061,-809 2294,-1213 3699,-1213 2006,0 3321,512 4387,1266l-650 3347c-532,-450 -1156,-774 -2117,-1113 -563,-199 -1123,-299 -1680,-299 -424,0 -822,107 -1193,319 -371,212 -557,517 -557,914 0,239 133,471 398,696 265,226 597,431 994,617 398,185 825,414 1283,686 457,271 885,563 1282,874 398,312 729,723 994,1233 266,511 398,1077 398,1700 0,1233 -504,2284 -1511,3152 -1008,868 -2267,1303 -3778,1303 -1007,0 -2005,-173 -2993,-517 -749,-262 -1387,-616 -1911,-1061 3,-6 5,-13 6,-20l652 -3348z"/>
    <polygon class="fil1" points="137604,44129 140481,29435 149668,29435 149072,32518 143461,32518 142947,35190 148170,35189 147572,38271 142331,38272 141797,41047 147438,41047 146840,44129 "/>
   </g>
   <path class="fil2" d="M57390 31139c-4614,-9020 -15027,-24066 -35233,-30615 -4555,-1476 -9366,235 -11966,4256 -5500,8505 -13304,25021 -8893,45762 995,4683 4877,7995 9658,8242 10094,521 28336,-949 44124,-15149 3563,-3204 4492,-8230 2310,-12496z"/>
   <g>
    <polygon class="fil3" points="18873,14751 16321,44119 28503,38677 "/>
    <polygon class="fil4" points="28502,38677 42239,37098 18872,14751 "/>
   </g>
  </g>
 </g>
</svg>
